<?xml version="1.0" standalone="no"?>
<!DOCTYPE svg PUBLIC "-//W3C//DTD SVG 1.1//EN" "http://www.w3.org/Graphics/SVG/1.1/DTD/svg11.dtd" >
<svg xmlns="http://www.w3.org/2000/svg">
<metadata>Generated by IcoMoon</metadata>
<defs>
<font id="icomoon" horiz-adv-x="1024">
<font-face units-per-em="1024" ascent="960" descent="-64" />
<missing-glyph horiz-adv-x="1024" />
<glyph unicode="&#x20;" horiz-adv-x="512" d="" />
<glyph unicode="&#xe900;" glyph-name="arrow-1-circle-down" d="M512-64c-282.304 0-512 229.664-512 512 0 282.304 229.696 512 512 512s512-229.696 512-512c0-282.336-229.696-512-512-512zM512 896c-247.040 0-448-200.96-448-448s200.96-448 448-448c247.040 0 448 200.96 448 448s-200.96 448-448 448zM534.624 329.376l192 192c12.512 12.48 12.512 32.768 0 45.248-12.512 12.512-32.736 12.512-45.248 0l-169.376-169.344-169.376 169.344c-12.512 12.512-32.736 12.512-45.248 0-12.512-12.48-12.512-32.768 0-45.248l192-192c6.24-6.24 14.432-9.376 22.624-9.376s16.384 3.136 22.624 9.376z" />
<glyph unicode="&#xe901;" glyph-name="arrow-1-circle-left" d="M512-64c-282.304 0-512 229.664-512 512 0 282.304 229.696 512 512 512s512-229.696 512-512c0-282.336-229.696-512-512-512zM512 896c-247.040 0-448-200.96-448-448s200.96-448 448-448c247.040 0 448 200.96 448 448s-200.96 448-448 448zM630.624 233.376c12.512 12.48 12.512 32.768 0 45.248l-169.376 169.376 169.376 169.376c12.512 12.48 12.512 32.768 0 45.248-12.512 12.512-32.736 12.512-45.248 0l-192-192c-12.512-12.48-12.512-32.768 0-45.248l192-192c6.24-6.24 14.432-9.376 22.624-9.376s16.384 3.136 22.624 9.376z" />
<glyph unicode="&#xe902;" glyph-name="arrow-1-circle-right" d="M512-64c-282.304 0-512 229.664-512 512 0 282.304 229.696 512 512 512s512-229.696 512-512c0-282.336-229.696-512-512-512zM512 896c-247.040 0-448-200.96-448-448s200.96-448 448-448c247.040 0 448 200.96 448 448s-200.96 448-448 448zM438.624 233.376l192 192c12.512 12.48 12.512 32.768 0 45.248l-192 192c-12.512 12.512-32.736 12.512-45.248 0-12.512-12.48-12.512-32.768 0-45.248l169.376-169.376-169.376-169.376c-12.512-12.48-12.512-32.768 0-45.248 6.24-6.24 14.432-9.376 22.624-9.376s16.384 3.136 22.624 9.376z" />
<glyph unicode="&#xe903;" glyph-name="arrow-1-circle-up" d="M512-64c-282.304 0-512 229.664-512 512 0 282.304 229.696 512 512 512s512-229.696 512-512c0-282.336-229.696-512-512-512zM512 896c-247.040 0-448-200.96-448-448s200.96-448 448-448c247.040 0 448 200.96 448 448s-200.96 448-448 448zM704 320c8.192 0 16.384 3.136 22.624 9.376 12.512 12.512 12.512 32.768 0 45.28l-192 191.968c-12.512 12.512-32.736 12.512-45.248 0l-192-191.968c-12.512-12.512-12.512-32.768 0-45.28s32.736-12.512 45.248 0l169.376 169.376 169.376-169.376c6.24-6.24 14.432-9.376 22.624-9.376z" />
<glyph unicode="&#xe904;" glyph-name="user" horiz-adv-x="896" d="M864-64h-832c-17.664 0-32 14.336-32 32v32c0 188.896 152.256 357.568 344.992 403.392-108 41.568-184.992 146.144-184.992 268.608 0 158.784 129.216 288 288 288s288-129.216 288-288c0-122.464-76.992-227.040-184.992-268.608 192.736-45.824 344.992-214.496 344.992-403.392v-32c0-17.664-14.336-32-32-32zM672 672c0 123.52-100.48 224-224 224s-224-100.48-224-224c0-123.52 100.48-224 224-224s224 100.48 224 224zM448 352c-204.576 0-384-164.512-384-352h768c0 187.488-179.424 352-384 352z" />
<glyph unicode="&#xe905;" glyph-name="user-male" d="M960-64h-896c-35.296 0-64 28.704-64 63.968v64c0 11.712 6.4 22.496 16.672 28.096l313.248 170.816c-104.896 113.504-106.048 273.984-106.048 281.408l0.192 191.872c0 1.76 0.16 3.552 0.448 5.248 22.048 130.784 166.432 218.592 287.488 218.592 0.032 0 0.096 0 0.128 0 120.992 0 265.312-87.744 287.424-218.496 0.288-1.728 0.448-3.52 0.448-5.312l0.128-191.84c0-7.424-1.152-167.904-106.080-281.408l313.28-170.816c10.272-5.6 16.672-16.384 16.672-28.096v-64.064c0-35.264-28.704-63.968-64-63.968zM960-0.032v0zM64 44.992v-45.024h895.936l0.032 45.024-335.296 182.912c-9.344 5.12-15.552 14.592-16.544 25.184-0.96 10.624 3.424 21.024 11.712 27.776 115.136 93.344 116.288 261.76 116.288 263.424l-0.128 189.088c-18.016 96-131.872 162.72-224 162.72-92.16-0.064-206.016-66.784-223.936-162.816l-0.192-189.024c0-1.664 1.76-170.592 116.288-263.456 8.288-6.752 12.672-17.12 11.712-27.776-0.992-10.624-7.2-20.064-16.544-25.152l-335.328-182.88z" />
<glyph unicode="&#xe906;" glyph-name="timer-1" d="M512-64c282.304 0 512 229.664 512 512s-229.696 512-512 512c-17.696 0-32-14.336-32-32v-128c0-17.664 14.304-32 32-32s32 14.336 32 32v94.368c232.096-16.512 416-210.144 416-446.368 0-247.040-200.96-448-448-448s-448 200.96-448 448c0 71.328 17.92 133.632 59.904 208.32 8.672 15.392 3.2 34.912-12.224 43.584-15.456 8.704-34.944 3.2-43.584-12.224-47.104-83.776-68.096-157.696-68.096-239.68 0-282.336 229.696-512 512-512zM512 512c-11.52 0-22.208-3.296-31.552-8.672l-176.704 99.776c-15.424 8.704-34.88 3.296-43.616-12.128-8.704-15.392-3.264-34.88 12.128-43.584l175.744-99.264c0-0.032 0-0.096 0-0.128 0-35.296 28.736-64 64-64 35.296 0 64 28.704 64 64s-28.704 64-64 64z" />
<glyph unicode="&#xe907;" glyph-name="timer-2" horiz-adv-x="896" d="M822.624 649.376c-2.912-2.912-6.304-4.992-9.888-6.56 52.16-73.12 83.264-162.272 83.264-258.816 0-247.040-200.96-448-448-448s-448 200.96-448 448c0 236.224 183.904 429.856 416 446.368v65.632h-64c-17.696 0-32 14.336-32 32s14.304 32 32 32h192c17.696 0 32-14.336 32-32s-14.304-32-32-32h-64v-65.632c99.84-7.104 190.624-47.136 261.824-109.056 1.184 1.76 1.984 3.744 3.552 5.312l32 32c12.512 12.512 32.736 12.512 45.248 0l32-32c12.512-12.512 12.512-32.768 0-45.248l-32-32zM448 768c-211.744 0-384-172.288-384-384s172.256-384 384-384c211.744 0 384 172.288 384 384s-172.256 384-384 384zM448 320c35.264 0 64 28.704 64 64s-28.736 64-64 64c-5.696 0-11.104-0.992-16.352-2.4l-153.024 153.024c-12.512 12.512-32.736 12.512-45.248 0s-12.512-32.768 0-45.248l153.024-153.024c-1.408-5.248-2.4-10.656-2.4-16.352 0-35.296 28.704-64 64-64z" />
<glyph unicode="&#xe908;" glyph-name="shopping-tag" horiz-adv-x="1018" d="M985.856 464.288l-493.152-509.28c-12.32-12.352-28.288-19.008-45.312-19.008s-32.992 6.656-44.992 18.72l-384.256 386.528c-24.832 24.96-24.832 65.536 0 90.496l506.976 496.576c18.176 18.24 50.432 31.68 76.512 31.68h352.416c35.072 0 63.648-28.704 63.648-64v-354.464c0-26.208-13.408-58.688-31.84-77.248zM954.048 896h-352.416c-9.056 0-25.408-6.816-31.808-13.28l-507.008-496.512 384.576-386.208c0.032 0 0.064 0 0.096 0l493.088 509.248c6.688 6.752 13.472 23.2 13.472 32.288v354.464zM763.136 576c-70.176 0-127.264 57.408-127.264 128 0 70.56 57.088 128 127.264 128 70.208 0 127.296-57.44 127.296-128 0-70.592-57.088-128-127.296-128zM763.136 768c-35.072 0-63.616-28.704-63.616-64s28.544-64 63.616-64c35.072 0 63.648 28.704 63.648 64s-28.576 64-63.648 64z" />
<glyph unicode="&#xe909;" glyph-name="pencil-1" horiz-adv-x="1019" d="M1009.504 769.568l-724.032-727.744c-0.032-0.032-0.064-0.064-0.096-0.064l-0.128-0.16c-1.376-1.344-3.072-1.984-4.608-3.072-1.888-1.312-3.488-2.912-5.696-3.84l-0.224-0.096c0 0 0 0 0 0l-230.592-96.16c-3.936-1.632-8.064-2.432-12.192-2.432-8.288 0-16.416 3.232-22.496 9.376-9.12 9.152-11.84 22.944-6.912 34.88l95.648 231.744c0.032 0.032 0.032 0.064 0.032 0.064l0.064 0.192c0.768 1.856 2.176 3.136 3.2 4.768 1.216 1.888 2.080 3.936 3.712 5.6l724.256 728c5.952 5.984 14.048 9.376 22.496 9.376s16.544-3.392 22.496-9.376l135.072-135.808c12.416-12.48 12.416-32.736 0-45.248zM90.848 27.232l115.68 48.256-67.68 68.032-48-116.288zM262.752 109.504l555.488 558.336-90.048 90.528-555.488-558.368 90.048-90.496zM851.936 882.752l-78.72-79.136 90.016-90.528 78.752 79.104-90.048 90.56z" />
<glyph unicode="&#xe90a;" glyph-name="next-4-square" d="M992-64h-960c-17.664 0-32 14.336-32 32v960c0 17.664 14.336 32 32 32h960c17.664 0 32-14.336 32-32v-960c0-17.664-14.336-32-32-32zM960 896h-896v-896h896v896zM384 480.032c-45.952 0-128-42.816-128-128.032v-64c0-17.696 14.336-32 32-32s32 14.304 32 32v64c0 44.736 48.576 64 64 64h274.752l-73.376-73.376c-12.512-12.48-12.512-32.768 0-45.248 6.24-6.24 14.432-9.376 22.624-9.376s16.384 3.136 22.624 9.376l128 128c2.944 2.944 5.28 6.464 6.912 10.4 3.232 7.808 3.232 16.64 0 24.448-1.632 3.936-4 7.488-6.976 10.464l-127.936 127.936c-12.512 12.512-32.736 12.512-45.248 0-12.512-12.48-12.512-32.736 0-45.248l73.344-73.344h-274.72z" />
<glyph unicode="&#xe90b;" glyph-name="next-4-circle" d="M512-64c-282.304 0-512 229.664-512 512 0 282.304 229.696 512 512 512s512-229.696 512-512c0-282.336-229.696-512-512-512zM512 896c-247.040 0-448-200.96-448-448s200.96-448 448-448c247.040 0 448 200.96 448 448s-200.96 448-448 448zM758.624 425.376c2.944 2.944 5.28 6.464 6.912 10.4 3.232 7.808 3.232 16.64 0 24.448-1.632 3.936-4 7.488-6.976 10.464l-127.936 127.936c-12.512 12.512-32.736 12.512-45.248 0-12.512-12.48-12.512-32.736 0-45.248l73.344-73.344h-274.72c-45.92 0-128-42.816-128-128.032v-64c0-17.696 14.336-32 32-32s32 14.304 32 32v64c0 44.736 48.576 64 64 64h274.752l-73.376-73.376c-12.512-12.48-12.512-32.768 0-45.248 6.24-6.24 14.432-9.376 22.624-9.376s16.384 3.136 22.624 9.376l128 128z" />
<glyph unicode="&#xe90c;" glyph-name="more-circle" d="M512-64c-282.304 0-512 229.664-512 512s229.696 512 512 512c282.304 0 512-229.664 512-512s-229.696-512-512-512zM512 896c-247.040 0-448-200.96-448-448s200.96-448 448-448c247.040 0 448 200.96 448 448s-200.96 448-448 448zM736 384c35.296 0 64 28.704 64 64s-28.704 64-64 64c-35.296 0-64-28.704-64-64s28.704-64 64-64zM512 384c35.296 0 64 28.704 64 64s-28.704 64-64 64c-35.296 0-64-28.704-64-64s28.704-64 64-64zM288 384c35.296 0 64 28.704 64 64s-28.704 64-64 64c-35.296 0-64-28.704-64-64s28.704-64 64-64z" />
<glyph unicode="&#xe90d;" glyph-name="hamburger-menu-1" horiz-adv-x="1365" d="M1322.667 405.333c23.552 0 42.667 19.115 42.667 42.667s-19.115 42.709-42.667 42.709h-1280c-23.552 0-42.667-19.157-42.667-42.709s19.115-42.667 42.667-42.667h1280zM1322.667 874.667c23.552 0 42.667 19.115 42.667 42.667s-19.115 42.667-42.667 42.667h-1280c-23.552 0-42.667-19.115-42.667-42.667s19.115-42.667 42.667-42.667h1280zM42.667 21.333c-23.552 0-42.667-19.115-42.667-42.667s19.115-42.667 42.667-42.667h1280c23.552 0 42.667 19.115 42.667 42.667s-19.115 42.667-42.667 42.667h-1280z" />
<glyph unicode="&#xe90e;" glyph-name="expand-4" horiz-adv-x="1021" d="M989.056-64c17.632 0 31.936 14.336 31.936 32v960c0 17.664-14.304 32-31.936 32h-957.248c-17.6 0-31.904-14.336-31.904-32v-672c0-17.664 14.304-32 31.904-32 17.632 0 29.184 14.336 29.184 32v640h896.16v-896h-606.24c-17.632 0-31.904-14.336-31.904-32s14.272-32 31.904-32h638.144zM592.928 576l-583.68-585.376c-12.448-12.48-12.448-32.736 0-45.248 6.24-6.24 14.4-9.376 22.56-9.376 8.192 0 16.352 3.136 22.56 9.376l583.712 585.376v-242.752c0-17.664 14.272-32 31.904-32s31.904 14.336 31.904 32v320c0 0 0 0 0 0 0 4.192-0.832 8.32-2.464 12.256-1.504 3.648-3.744 6.88-6.432 9.728-0.192 0.192-0.256 0.448-0.448 0.64-0.32 0.32-0.736 0.416-1.056 0.704-2.72 2.56-5.792 4.736-9.28 6.208-3.936 1.632-8.096 2.464-12.288 2.464h-319.008c-17.632 0-31.904-14.336-31.904-32s14.272-32 31.904-32h242.016z" />
<glyph unicode="&#xe90f;" glyph-name="expand-2" horiz-adv-x="1021" d="M1021.112-31.813c0 0.032 0.032 0.064 0.032 0.096v0.032c0 0 0 0 0 0v223.958c0 17.682-14.312 32.026-31.93 32.026s-28.496-13.895-28.496-31.577v-150.567l-299.916 300.75c-12.451 12.515-32.636 12.515-45.119 0-12.451-12.483-12.451-32.764 0-45.247l296.61-297.445-146.428 0.064c-17.618 0-31.898-14.312-31.898-31.994 0-17.65 14.28-31.994 31.898-31.994h223.348c4.172 0 8.311 0.866 12.194 2.471 7.798 3.241 14.023 9.499 17.265 17.329 1.605 3.851 2.439 7.99 2.439 12.098zM989.214 672.247c17.618 0 31.93 14.344 31.93 31.994v223.99c0 0 0 0 0 0 0 4.172-0.866 8.343-2.471 12.258-1.605 3.819-3.883 7.252-6.739 10.173-0.064 0.064-0.096 0.16-0.16 0.225-0.128 0.096-0.289 0.16-0.417 0.257-2.856 2.792-6.193 5.070-9.916 6.611-3.915 1.637-8.087 2.503-12.291 2.471h-223.284c-17.618 0-31.898-14.312-31.898-31.994 0-17.65 16.591-29.523 34.208-29.523h146.492l-298.985-299.819c-12.451-12.483-12.451-32.764 0-45.247 6.226-6.258 14.409-9.37 22.559-9.37 8.183 0 16.334 3.113 22.559 9.37l299.916 300.782v-148.257c0-17.682 10.879-33.919 28.496-33.919zM108.946 0.213l296.61 297.445c12.451 12.483 12.451 32.764 0 45.247-12.451 12.515-32.668 12.515-45.119 0l-298.247-299.113v148.931c0 17.682-12.547 31.577-30.165 31.577s-31.93-14.344-31.93-32.026v-223.99c0-0.064 0.064-0.16 0.064-0.257 0.032-4.075 0.834-8.119 2.407-11.938 3.241-7.83 9.467-14.088 17.265-17.329 3.883-1.605 8.023-2.471 12.194-2.471h223.348c17.618 0 31.898 14.344 31.898 31.994 0 17.682-14.28 31.994-31.898 31.994l-146.428-0.064zM382.997 544.271c8.151 0 16.334 3.113 22.559 9.37 12.451 12.483 12.451 32.764 0 45.247l-298.953 299.819h148.129c17.618 0 32.54 11.873 32.54 29.523 0 17.682-14.28 31.994-31.898 31.994h-223.284c-4.172 0.032-8.343-0.834-12.291-2.471-3.787-1.572-7.188-3.883-10.076-6.707-0.064-0.064-0.193-0.096-0.257-0.16 0-0.032 0-0.032 0-0.032-2.952-2.92-5.263-6.45-6.899-10.365-1.605-3.915-2.439-8.087-2.439-12.258 0 0-0.032 0-0.032 0v-223.99c0-17.65 14.312-31.994 31.93-31.994s30.165 16.238 30.165 33.919v146.588l298.247-299.113c6.226-6.258 14.376-9.37 22.559-9.37z" />
<glyph unicode="&#xe910;" glyph-name="expand-3" horiz-adv-x="1022" d="M1021.465 736.235c0-17.682-14.28-31.994-31.898-31.994s-28.849 16.334-28.849 34.016v115.814l-101.181-101.469c1.412-5.263 2.375-10.686 2.375-16.366v-575.988c0-35.267-28.592-63.988-63.795-63.988h-574.319c-5.68 0-11.103 0.995-16.334 2.407l-98.164-98.453 114.498 0.064c17.618 0 31.898-14.344 31.898-31.994 0-17.682-14.28-31.994-31.898-31.994h-191.45c-4.14 0-8.279 0.834-12.194 2.471-7.798 3.241-14.023 9.467-17.265 17.297-1.572 3.883-2.407 7.99-2.439 12.13 0 0.032 0 0.064 0 0.096v0c0 0 0 0 0 0v191.964c0 17.714 14.28 31.994 31.898 31.994s29.844-13.959 29.844-31.609v-117.194l100.154 100.475c-1.38 5.231-2.375 10.654-2.375 16.334v575.988c0 35.299 28.625 63.988 63.828 63.988h574.319c5.68 0 11.071-0.995 16.302-2.375l100.603 100.86h-114.755c-17.618 0-34.048 11.841-34.048 29.523 0 17.65 14.28 31.994 31.898 31.994h191.354c4.204 0 8.376-0.834 12.291-2.471 3.787-1.605 7.188-3.883 10.076-6.739 0.096-0.064 0.193-0.096 0.289-0.16 0 0 0 0 0 0 2.92-2.952 5.263-6.482 6.867-10.397s2.471-8.055 2.471-12.226c0 0 0 0 0 0v-191.996zM222.642 738.256v-533.886l138.116 138.502c12.483 12.515 32.668 12.515 45.119 0 12.483-12.483 12.483-32.732 0-45.247l-136.608-136.993h530.997v532.506l-139.143-139.496c-6.226-6.29-14.376-9.402-22.559-9.402-8.151 0-16.302 3.113-22.559 9.402-12.451 12.483-12.451 32.732 0 45.215l139.015 139.4h-532.377z" />
<glyph unicode="&#xe911;" glyph-name="double-arrows-1-right" horiz-adv-x="896" d="M885.306 424.029c6.45 6.065 10.108 14.505 10.108 23.362 0 8.825-3.658 17.297-10.108 23.33l-511.615 479.846c-12.9 12.098-33.149 11.456-45.183-1.476-12.098-12.868-11.456-33.117 1.444-45.183l486.745-456.516-486.745-456.516c-12.9-12.066-13.542-32.315-1.444-45.183 6.29-6.739 14.794-10.141 23.298-10.141 7.862 0 15.724 2.888 21.886 8.664l511.615 479.813zM575.667 447.39c0 8.825-3.658 17.297-10.108 23.33l-511.615 479.846c-12.9 12.098-33.149 11.456-45.215-1.476-12.066-12.868-11.424-33.117 1.444-45.183l486.745-456.516-486.745-456.516c-12.868-12.066-13.51-32.315-1.444-45.183 6.29-6.739 14.826-10.141 23.33-10.141 7.83 0 15.724 2.888 21.886 8.664l511.615 479.813c6.45 6.065 10.108 14.505 10.108 23.362z" />
<glyph unicode="&#xe912;" glyph-name="arrow-2-left" d="M989.024 418.016h-880.192l200.768-200.384c12.48-12.416 12.48-32.576 0-45.024-6.24-6.208-14.4-9.312-22.56-9.312s-16.32 3.104-22.56 9.312l-255.232 254.72c-2.944 2.944-5.312 6.464-6.912 10.368-1.632 3.904-2.464 8.032-2.464 12.192 0 0 0 0 0 0 0 0.032 0 0.064 0 0.096 0.032 4.128 0.864 8.192 2.464 12.064 1.6 3.904 3.968 7.424 6.912 10.368l255.232 254.72c12.48 12.448 32.672 12.448 45.12 0 12.48-12.416 12.48-32.576 0-45.024l-200.8-200.384h880.224c17.632 0 31.904-14.272 31.904-31.84 0-17.6-14.272-31.872-31.904-31.872z" />
<glyph unicode="&#xe913;" glyph-name="arrow-2-right" d="M1020.704 449.92c0 0 0-0.032 0-0.032s0 0 0 0c0-4.16-0.832-8.288-2.464-12.192-1.6-3.904-3.968-7.424-6.944-10.368l-255.2-254.72c-6.208-6.208-14.4-9.312-22.56-9.312s-16.32 3.104-22.56 9.312c-12.448 12.448-12.448 32.608 0 45.056l200.8 200.352h-880.224c-17.6 0-31.904 14.272-31.904 31.872 0 17.568 14.304 31.84 31.904 31.84h880.224l-200.8 200.384c-12.448 12.448-12.448 32.608 0 45.056 12.48 12.416 32.672 12.416 45.12 0l255.232-254.752c2.976-2.944 5.312-6.464 6.944-10.368 1.6-3.872 2.432-8 2.432-12.128z" />
<glyph unicode="&#xe914;" glyph-name="arrow-2-sqare-down" d="M992-64h-960c-17.696 0-32 14.336-32 32v960c0 17.664 14.304 32 32 32h960c17.696 0 32-14.336 32-32v-960c0-17.664-14.304-32-32-32zM960 896h-896v-896h896v896zM406.624 342.624c-12.512 12.512-32.736 12.512-45.248 0-12.512-12.48-12.512-32.768 0-45.248l127.936-127.936c2.976-2.976 6.528-5.344 10.464-6.976 3.904-1.632 8.064-2.464 12.224-2.464s8.32 0.832 12.224 2.464c3.936 1.632 7.488 4 10.464 6.976l127.936 127.936c12.512 12.48 12.512 32.768 0 45.248-12.512 12.512-32.736 12.512-45.248 0l-73.376-73.376v434.784c0 17.664-14.304 31.968-32 31.968s-32-14.304-32-31.968v-434.784l-73.376 73.376z" />
<glyph unicode="&#xe915;" glyph-name="arrow-2-sqare-left" d="M992-64h-960c-17.664 0-32 14.336-32 32v960c0 17.664 14.336 32 32 32h960c17.664 0 32-14.336 32-32v-960c0-17.664-14.336-32-32-32zM960 896h-896v-896h896v896zM226.464 460.224c-3.232-7.808-3.232-16.64 0-24.448 1.632-3.936 3.968-7.456 6.912-10.4l128-128c6.24-6.24 14.432-9.376 22.624-9.376s16.384 3.136 22.624 9.376c12.512 12.48 12.512 32.768 0 45.248l-73.376 73.376h434.752c17.664 0 32 14.336 32 32s-14.336 32-32 32h-434.72l73.344 73.376c12.512 12.512 12.512 32.768 0 45.248-12.512 12.512-32.736 12.512-45.248 0l-127.936-127.936c-2.976-2.976-5.344-6.528-6.976-10.464z" />
<glyph unicode="&#xe916;" glyph-name="arrow-2-sqare-right" d="M992-64h-960c-17.664 0-32 14.336-32 32v960c0 17.664 14.336 32 32 32h960c17.664 0 32-14.336 32-32v-960c0-17.664-14.336-32-32-32zM960 896h-896v-896h896v896zM256 480c-17.664 0-32-14.336-32-32s14.336-32 32-32h434.752l-73.376-73.376c-12.512-12.48-12.512-32.768 0-45.248 6.24-6.24 14.432-9.376 22.624-9.376s16.384 3.136 22.624 9.376l128 128c2.944 2.944 5.28 6.464 6.912 10.4 3.232 7.808 3.232 16.64 0 24.448-1.632 3.936-4 7.488-6.976 10.464l-127.936 127.936c-12.512 12.512-32.736 12.512-45.248 0-12.512-12.48-12.512-32.736 0-45.248l73.344-73.376h-434.72z" />
<glyph unicode="&#xe917;" glyph-name="arrow-2-sqare-up" d="M992-64h-960c-17.664 0-32 14.336-32 32v960c0 17.664 14.336 32 32 32h960c17.664 0 32-14.336 32-32v-960c0-17.664-14.336-32-32-32zM960 896h-896v-896h896v896zM489.344 726.592l-127.968-127.968c-12.512-12.48-12.512-32.736 0-45.248s32.736-12.512 45.248 0l73.376 73.376v-434.752c0-17.664 14.336-32 32-32s32 14.336 32 32v434.72l73.376-73.344c6.24-6.24 14.432-9.376 22.624-9.376s16.384 3.136 22.624 9.376c12.512 12.512 12.512 32.768 0 45.248l-127.968 127.968c-2.944 2.944-6.496 5.312-10.432 6.944-7.808 3.232-16.64 3.232-24.448 0-3.936-1.632-7.488-3.968-10.432-6.944z" />
<glyph unicode="&#xe918;" glyph-name="arrow-2-up" horiz-adv-x="572" d="M561.997 649.751c-6.193-6.226-14.344-9.37-22.463-9.37-8.151 0-16.27 3.145-22.463 9.37l-199.986 201.366v-882.707c0-17.65-14.248-31.994-31.801-31.994s-29.555 13.991-29.555 31.673v885.242l-202.201-203.581c-12.419-12.515-32.54-12.515-44.958 0-12.387 12.483-12.387 32.764 0 45.247l254.251 255.984c0.16 0.193 0.417 0.225 0.578 0.385 5.070 5.455 12.323 8.664 21.083 8.857 4.428 0.096 8.825-0.61 12.964-2.343 3.819-1.605 7.284-3.915 10.173-6.803 0.032-0.032 0.096-0.032 0.128-0.096h0.032c0 0 0 0 0 0l254.219-255.984c12.419-12.483 12.419-32.764 0-45.247z" />
<glyph unicode="&#xe919;" glyph-name="arrow-3-circle-down" d="M512-64c-282.304 0-512 229.696-512 512s229.696 512 512 512c282.304 0 512-229.696 512-512s-229.696-512-512-512zM512 896c-247.040 0-448-200.96-448-448s200.96-448 448-448c247.040 0 448 200.96 448 448s-200.96 448-448 448zM320 480l192-224 192 224h-96v160h-192v-160h-96z" />
<glyph unicode="&#xe91a;" glyph-name="arrow-3-circle-left" d="M512-64c-282.304 0-512 229.696-512 512s229.696 512 512 512c282.304 0 512-229.696 512-512s-229.696-512-512-512zM512 896c-247.040 0-448-200.96-448-448 0-247.008 200.96-448 448-448s448 200.992 448 448c0 247.040-200.96 448-448 448zM544 256v96h160v192h-160v96l-224-192 224-192z" />
<glyph unicode="&#xe91b;" glyph-name="arrow-3-circle-right" d="M512-64c-282.304 0-512 229.696-512 512s229.696 512 512 512c282.304 0 512-229.696 512-512s-229.696-512-512-512zM512 896c-247.040 0-448-200.96-448-448 0-247.008 200.96-448 448-448s448 200.992 448 448c0 247.040-200.96 448-448 448zM480 352v-96l224 192-224 192v-96h-160v-192h160z" />
<glyph unicode="&#xe91c;" glyph-name="arrow-3-circle-up" d="M512-64c-282.304 0-512 229.696-512 512s229.696 512 512 512c282.304 0 512-229.696 512-512s-229.696-512-512-512zM512 896c-247.040 0-448-200.96-448-448s200.96-448 448-448c247.040 0 448 200.96 448 448s-200.96 448-448 448zM608 256v160h96l-192 224-192-224h96v-160h192z" />
<glyph unicode="&#xe91d;" glyph-name="arrow-3-down" horiz-adv-x="764" d="M756.736 363.328l-350.112-416c-6.048-7.2-14.944-11.328-24.288-11.328s-18.24 4.128-24.288 11.328l-350.080 416c-8.032 9.504-9.792 22.848-4.608 34.144 5.216 11.296 16.512 18.528 28.896 18.528h190.944v512.032c0 17.632 14.272 31.968 31.84 31.968h255.616c17.568 0 31.808-14.336 31.808-31.968v-512.032h189.952c12.416 0 23.68-7.232 28.896-18.528 5.184-11.296 3.424-24.64-4.576-34.144zM509.632 352c-17.568 0-31.808 14.336-31.808 32 0 1.76 0.704 3.264 0.992 4.96v507.040h-191.968v-512c0-17.664-14.24-32-31.808-32h-154.176l281.472-334.432 281.472 334.432h-154.176z" />
<glyph unicode="&#xe91e;" glyph-name="arrow-3-left" d="M992 289.92h-512v-191.552c0-12.448-7.232-23.744-18.528-28.992-4.32-1.984-8.896-2.944-13.472-2.944-7.424 0-14.784 2.56-20.672 7.552l-416 351.040c-7.2 6.048-11.328 14.976-11.328 24.352s4.128 18.304 11.328 24.352l416 351.040c9.504 8.032 22.816 9.856 34.144 4.608 11.296-5.216 18.528-16.544 18.528-28.96v-191.488h512c17.664 0 32-14.272 32-31.904v-256.288c0-17.6-14.336-30.816-32-30.816zM960 545.12h-512c-17.664 0-32 14.304-32 31.904v154.592l-334.464-282.24 334.464-282.208v154.56c0 17.632 14.336 31.904 32 31.904 1.76 0 3.264-0.704 4.928-0.992h507.072v192.48z" />
<glyph unicode="&#xe91f;" glyph-name="arrow-3-right" d="M1012.672 425.024l-416-351.040c-5.888-4.96-13.248-7.584-20.672-7.584-4.576 0-9.152 0.992-13.472 2.976-11.296 5.248-18.528 16.544-18.528 28.992v191.552h-512c-17.664 0-32 13.216-32 30.816v256.288c0 17.632 14.336 31.904 32 31.904h512v191.488c0 12.416 7.232 23.744 18.528 28.96 11.328 5.248 24.64 3.424 34.144-4.608l416-351.040c7.2-6.048 11.328-14.976 11.328-24.352s-4.128-18.304-11.328-24.352zM608 731.616v-154.592c0-17.6-14.336-31.904-32-31.904h-512v-192.48h507.072c1.664 0.288 3.168 0.992 4.928 0.992 17.664 0 32-14.272 32-31.904v-154.56l334.464 282.208-334.464 282.24z" />
<glyph unicode="&#xe920;" glyph-name="arrow-3-square-down" d="M992-64h-960c-17.696 0-32 14.336-32 32v960c0 17.664 14.304 32 32 32h960c17.696 0 32-14.336 32-32v-960c0-17.664-14.304-32-32-32zM960 896h-896v-896h896v896zM416 640v-160h-96l192-224 192 224h-96v160h-192z" />
<glyph unicode="&#xe921;" glyph-name="arrow-3-square-left" d="M992-64h-960c-17.664 0-32 14.336-32 32v960c0 17.664 14.336 32 32 32h960c17.664 0 32-14.336 32-32v-960c0-17.664-14.336-32-32-32zM960 896h-896v-896h896v896zM544 544v96l-224-192 224-192v96h160v192h-160z" />
<glyph unicode="&#xe922;" glyph-name="arrow-3-square-right" d="M992-64h-960c-17.664 0-32 14.336-32 32v960c0 17.664 14.336 32 32 32h960c17.664 0 32-14.336 32-32v-960c0-17.664-14.336-32-32-32zM960 896h-896v-896h896v896zM480 640v-96h-160v-192h160v-96l224 192-224 192z" />
<glyph unicode="&#xe923;" glyph-name="arrow-3-square-up" d="M992-64h-960c-17.664 0-32 14.336-32 32v960c0 17.664 14.336 32 32 32h960c17.664 0 32-14.336 32-32v-960c0-17.664-14.336-32-32-32zM960 896h-896v-896h896v896zM704 416l-192 224-192-224h96v-160h192v160h96z" />
<glyph unicode="&#xe924;" glyph-name="arrow-3-up" horiz-adv-x="767" d="M764.146 498.654c-5.236-11.306-16.542-18.566-28.973-18.566h-190.667v-512.482c0-17.698-14.326-32.024-31.96-32.024h-256.578c-17.634 0-31.928 14.326-31.928 32.024v512.482h-191.695c-12.431 0-23.737 7.259-28.973 18.566s-3.437 24.636 4.593 34.176l351.43 416.377c12.142 14.422 36.617 14.422 48.759 0l351.398-416.377c8.062-9.54 9.829-22.87 4.593-34.176zM383.775 878.928l-282.531-334.759h154.724c17.666 0 31.96-14.358 31.96-32.024v-512.514h192.691v507.567c-0.289 1.67-0.996 3.18-0.996 4.947 0 17.666 14.294 32.024 31.928 32.024h154.756l-282.531 334.759z" />
<glyph unicode="&#xe925;" glyph-name="back-3" d="M989.024 98.944c-17.632 0-31.904 14.272-31.904 31.872v223.072c0 105.44-85.888 191.232-191.456 191.232h-656.864l136.992-136.8c12.448-12.448 12.448-32.64 0-45.088-6.24-6.208-14.4-9.344-22.56-9.344s-16.32 3.136-22.56 9.344l-191.456 191.232c-2.944 2.944-5.28 6.464-6.88 10.368-1.6 3.808-2.368 7.84-2.432 11.904 0 0.096-0.032 0.16-0.032 0.256 0 0 0 0 0 0 0 4.16 0.832 8.288 2.464 12.192 1.536 3.744 3.84 7.072 6.592 9.92 0.128 0.128 0.16 0.32 0.288 0.416l191.456 191.232c12.448 12.448 32.64 12.448 45.12 0 12.448-12.448 12.448-32.608 0-45.056l-136.992-136.832h656.864c140.768 0 255.264-114.368 255.264-254.976v-223.072c0-17.6-14.272-31.872-31.904-31.872z" />
<glyph unicode="&#xe926;" glyph-name="back-5" d="M765.632 288h-656.864l136.992-137.344c12.448-12.512 12.448-32.8 0-45.28-6.24-6.272-14.4-9.376-22.56-9.376s-16.32 3.104-22.56 9.376l-191.456 192c-2.944 2.944-5.248 6.464-6.88 10.4-3.232 7.808-3.232 16.64 0 24.448 1.632 3.936 3.936 7.456 6.88 10.4l191.456 192c12.448 12.48 32.64 12.48 45.12 0 12.448-12.48 12.448-32.768 0-45.248l-136.992-137.376h656.864c105.568 0 191.456 86.144 191.456 192s-85.888 192-191.456 192h-733.888c-17.6 0-31.904 14.336-31.904 32s14.304 32 31.904 32h733.888c140.768 0 255.264-114.848 255.264-256 0-141.184-114.496-256-255.264-256z" />
<glyph unicode="&#xe927;" glyph-name="back-7" d="M1013.024 32.352c-0.96-16.928-14.88-30.048-31.584-30.048-0.32 0-0.672 0-1.024 0-17.12 0.544-30.72 14.784-30.656 32.064 0 1.056-1.44 119.968-97.792 211.2-82.464 78.080-209.504 114.208-377.056 108.832v-192.48c0-12.416-7.168-23.712-18.336-28.96-4.256-1.984-8.8-2.976-13.312-2.976-7.36 0-14.624 2.56-20.48 7.584l-411.552 351.136c-7.104 6.080-11.2 15.008-11.2 24.384s4.096 18.304 11.2 24.352l411.552 351.168c9.408 8.032 22.592 9.824 33.792 4.608 11.168-5.248 18.336-16.544 18.336-28.96v-192.384c73.152-4.256 259.744-29.088 394.368-169.664 107.040-111.808 155.424-269.888 143.744-469.856zM824.128 457.44c-147.584 154.496-376.384 151.488-378.752 151.424-0.384-0.032-0.736 0.192-1.152 0.192-0.352-0.032-0.64-0.224-0.96-0.224-1.632 0-2.784 0.768-4.256 1.024-2.432 0.384-4.864 0.64-7.072 1.632-0.16 0.096-0.288 0.224-0.48 0.32-10.496 4.928-18.144 15.744-18.4 28.224-0.128 5.6 1.536 10.624 3.936 15.232v146.656l-336.288-288.832 336.288-287.168v142.464c-2.848 4.448-4.992 9.408-5.344 15.072-0.832 14.016 7.584 26.080 19.776 31.136 1.12 0.576 2.592 0.64 3.84 1.024 2.048 0.544 3.904 1.504 6.080 1.632 0.64 0.032 1.248 0.032 1.888 0.064 0 0 0 0 0.032 0 0 0 0 0 0 0 200.448 11.84 352.832-30.592 453.056-126.144 14.112-13.472 26.496-27.36 37.408-41.376-19.904 82.592-56.48 152.064-109.6 207.648z" />
<glyph unicode="&#xe928;" glyph-name="backward-7" d="M1014.592 112.32c-0.96-16.864-14.912-29.984-31.776-29.984-0.064 0-0.128 0-0.192 0-16.928 0.064-30.816 13.408-31.616 30.336-0.16 3.008-5.376 78.72-76.32 141.728-67.136 59.648-170.176 87.456-305.344 83.776v-128.416c0-12.608-7.392-24.032-18.912-29.12-4.128-1.856-8.544-2.752-12.928-2.752-7.744 0-15.36 2.848-21.344 8.224l-315.008 284.768c-6.656 6.016-10.464 14.56-10.496 23.52-0.032 8.992 3.712 17.536 10.336 23.616l315.008 288.704c9.312 8.512 22.816 10.752 34.336 5.632 11.552-5.056 19.008-16.512 19.008-29.152v-130.24c64.96-8.032 219.2-39.328 329.28-160.384 86.208-94.848 125.248-222.784 115.968-380.256zM851.872 449.28c-121.216 133.728-313.6 142.72-315.552 142.784-17.568 0.704-31.264 15.488-30.624 33.056 0.256 6.432 2.848 12 6.304 16.896v78.944l-242.208-226.272 242.208-221.728v64c0 3.328 0.384 7.808 0.96 12.672-3.904 4.96-6.816 10.72-7.232 17.504-1.056 17.568 12.32 32.64 29.856 33.696 0.672 0.032 1.28 0.032 1.92 0.064 0 0 0 0 0 0s0.032 0 0.032 0c167.968 9.824 296.032-23.84 380.832-100.096 7.264-6.528 13.984-13.152 20.16-19.84-15.616 65.568-44.576 121.888-86.656 168.32zM78.752 494.688l289.216 265.024c12.96 11.904 13.824 32.032 1.952 45.024-11.872 12.928-32 13.888-44.96 1.984l-315.040-288.704c-6.624-6.080-10.368-14.624-10.336-23.616 0.032-8.96 3.84-17.504 10.496-23.52l315.008-284.768c6.112-5.504 13.728-8.224 21.344-8.224 8.704 0 17.344 3.552 23.648 10.496 11.776 13.056 10.752 33.184-2.272 45.024l-289.056 261.28z" />
<glyph unicode="&#xe929;" glyph-name="badge-2" horiz-adv-x="1020" d="M1014.56 109.952c-6.912-10.144-19.072-15.392-31.136-13.6l-176.64 27.008-65.024-167.008c-4.448-11.456-15.072-19.328-27.328-20.256-0.8-0.064-1.568-0.096-2.4-0.096-11.328 0-21.888 6.048-27.616 16l-174.56 303.328-174.464-303.328c-5.728-9.952-16.288-16-27.648-16-0.768 0-1.568 0.032-2.4 0.096-12.224 0.928-22.848 8.8-27.296 20.256l-65.024 167.008-176.704-27.008c-12-1.792-24.224 3.456-31.136 13.6-6.912 10.176-7.424 23.392-1.28 34.048l185.248 322.016c-19.2 43.488-30.080 91.456-30.080 141.984 0 194.112 157.376 352 350.784 352 193.44 0 350.816-157.888 350.816-352 0-50.528-10.88-98.496-30.080-141.984l185.248-322.016c6.144-10.656 5.632-23.872-1.28-34.048zM92.32 169.664l136.32 20.8c14.56 2.176 29.088-6.016 34.528-20l50.144-128.8 127.296 221.312c-87.904 17.76-163.744 68.704-214.592 139.072l-133.696-232.384zM509.856 896c-158.24 0-287.008-129.216-287.008-288 0-158.816 128.768-288 287.008-288 158.272 0 287.040 129.184 287.040 288 0 158.784-128.768 288-287.040 288zM793.76 402.048c-50.848-70.368-126.72-121.344-214.624-139.104l127.328-221.28 50.176 128.8c5.44 13.984 19.968 22.176 34.496 20l136.288-20.8-133.664 232.384z" />
<glyph unicode="&#xe92a;" glyph-name="ban" d="M512-64c-282.304 0-512 229.664-512 512 0 282.304 229.696 512 512 512s512-229.696 512-512c0-282.336-229.696-512-512-512zM64 448c0-247.008 200.96-448 448-448 112.032 0 214.304 41.6 292.928 109.824l-631.104 631.104c-68.224-78.624-109.824-180.896-109.824-292.928zM512 896c-112.032 0-214.304-41.6-292.928-109.824l631.104-631.104c68.224 78.624 109.824 180.928 109.824 292.928 0 247.040-200.96 448-448 448z" />
<glyph unicode="&#xe92b;" glyph-name="basket" d="M1019.648 538.72l-127.68-511.136c-3.552-14.208-16.32-24.192-30.976-24.192h-702.144c-14.656 0-27.424 9.984-30.976 24.192l-127.68 511.136c-2.368 9.536-0.192 19.616 5.824 27.36 6.048 7.712 15.36 12.224 25.184 12.224h192.096c0.16 2.72 0.096 5.44 0.992 8.128l95.776 287.488c5.568 16.736 23.648 25.76 40.352 20.192 16.736-5.536 25.76-23.584 20.224-40.288l-91.776-275.52h442.112l-91.776 275.52c-5.536 16.704 3.488 34.752 20.224 40.288 16.672 5.568 34.784-3.456 40.352-20.192l95.776-287.488c0.896-2.688 0.832-5.408 0.992-8.128h192.096c9.824 0 19.136-4.512 25.152-12.224 6.048-7.744 8.224-17.824 5.856-27.36zM72.032 514.56l111.744-447.392h652.288l111.744 447.392h-875.776z" />
<glyph unicode="&#xe92c;" glyph-name="basket-checked" d="M948.128 386.4c17.152-3.456 33.984 7.808 37.376 25.088l31.84 161.376c1.856 9.344-0.576 19.040-6.656 26.4-6.016 7.392-15.072 11.648-24.576 11.648h-191.648c-0.192 2.72-0.128 5.408-1.024 8.096l-95.488 286.88c-5.568 16.704-23.456 25.728-40.256 20.16-16.672-5.568-25.696-23.616-20.128-40.32l91.488-274.816h-440.928l91.488 274.816c5.536 16.704-3.456 34.752-20.128 40.32-16.8 5.568-34.688-3.456-40.256-20.16l-95.52-286.88c-0.864-2.688-0.8-5.376-0.992-8.096h-191.648c-9.792 0-19.040-4.512-25.088-12.256-6.016-7.744-8.192-17.824-5.792-27.328l127.36-510.048c3.52-14.208 16.256-24.128 30.848-24.128h382.016c17.6 0 31.84 14.24 31.84 31.84s-14.24 31.904-31.84 31.904h-357.12l-111.424 446.272h875.488l-24.32-123.328c-3.392-17.28 7.808-34.048 25.088-37.44zM690.048 150.976c-12.576 12.32-32.736 12.128-45.024-0.448s-12.096-32.768 0.448-45.056l127.328-124.992c5.984-5.856 14.016-9.088 22.304-9.088 0.8 0 1.6 0 2.432 0.096 9.12 0.672 17.536 5.28 23.040 12.64l191.008 255.008c10.56 14.112 7.68 34.080-6.4 44.64-14.016 10.56-33.952 7.68-44.544-6.368l-169.216-225.92-101.376 99.488z" />
<glyph unicode="&#xe92d;" glyph-name="blur" horiz-adv-x="704" d="M352-64c-194.080 0-352 161.28-352 359.52 0 253.152 313.92 636.64 327.296 652.864 6.080 7.328 15.104 11.616 24.672 11.616h0.032c9.536 0 18.56-4.224 24.64-11.584 13.376-16.096 327.36-397.536 327.36-652.896 0-198.24-157.92-359.52-352-359.52zM352.064 876.48c-73.824-95.552-288.064-389.44-288.064-580.96 0-162.944 129.184-295.52 288-295.52s288 132.576 288 295.52c0 193.184-214.080 485.76-287.936 580.96z" />
<glyph unicode="&#xe92e;" glyph-name="call" horiz-adv-x="1022" d="M990.465 512.22c17.649 0 31.966 14.317 31.966 31.998 0 229.463-186.447 416.134-415.622 416.134-17.681 0-31.998-14.317-31.998-31.998 0-17.649 14.317-31.998 31.998-31.998 193.91 0 351.69-157.972 351.69-352.138 0-17.681 14.317-31.998 31.966-31.998zM862.569 512.22c0 158.869-129.081 288.078-287.758 288.078-17.649 0-31.966-14.317-31.966-31.998s14.317-31.998 31.966-31.998c123.412 0 223.826-100.51 223.826-224.082 0-17.681 14.317-32.030 31.966-32.030s31.966 14.349 31.966 32.030zM327.379 549.087l284.266-284.587 138.498 84.015c11.723 7.175 26.841 5.958 37.347-3.043l223.826-192.084c6.47-5.573 10.474-13.517 11.082-22.037 0.577-8.552-2.242-16.976-7.879-23.414l-126.39-143.911c-0.448-0.512-1.794-1.89-2.306-2.37-16.976-17.008-40.486-25.656-69.857-25.656-109.447 0-311.3 128.472-502.263 319.628-212.551 212.872-379.844 476.319-288.398 567.956l144.584 128.697c6.406 5.701 14.702 8.712 23.382 8.008 8.52-0.577 16.495-4.548 22.069-11.018l192.853-224.082c9.032-10.506 10.282-25.656 3.107-37.507l-83.919-138.594zM188.112 882.84l-118.063-104.93c-37.892-38.052 55.38-243.172 288.879-477.023 197.305-197.497 379.268-300.858 457.036-300.858 8.104 0 18.994 1.185 24.663 6.886l104.482 118.96-181.642 155.89-140.131-85.008c-12.588-7.687-28.763-5.669-39.173 4.74l-319.724 320.076c-10.41 10.442-12.364 26.617-4.74 39.269l84.88 140.131-156.467 181.866z" />
<glyph unicode="&#xe92f;" glyph-name="call-back" horiz-adv-x="1022" d="M862.505 448.192c88.147 0 159.862 71.811 159.862 160.022 0 88.275-71.715 160.054-159.862 160.054h-210.597l73.349 73.413c12.492 12.492 12.492 32.767 0 45.29-12.492 12.492-32.735 12.492-45.226 0l-127.896-128.056c-12.492-12.524-12.492-32.767 0-45.258l127.896-128.024c6.246-6.278 14.446-9.385 22.613-9.385s16.367 3.107 22.613 9.385c12.492 12.492 12.492 32.735 0 45.226l-73.317 73.413h210.565c52.882 0 95.93-43.080 95.93-96.058 0-52.946-43.048-95.994-95.93-95.994-17.649 0-31.966-14.349-31.966-32.030s14.317-31.998 31.966-31.998zM327.315 549.087l284.266-284.587 138.498 84.015c11.787 7.175 26.873 5.958 37.379-3.075l223.826-192.052c6.47-5.573 10.474-13.517 11.082-22.037 0.577-8.552-2.242-16.976-7.879-23.414l-126.423-143.911c-0.448-0.512-1.794-1.89-2.274-2.37-16.976-17.008-40.486-25.656-69.857-25.656-109.479 0-311.3 128.472-502.295 319.66-212.519 212.84-379.812 476.254-288.398 567.892l144.584 128.697c6.406 5.701 14.67 8.744 23.382 8.008 8.552-0.545 16.495-4.516 22.101-11.018l192.821-224.082c9.032-10.506 10.314-25.624 3.107-37.475l-83.919-138.594zM188.048 882.84l-118.063-104.962c-37.859-38.052 55.38-243.14 288.879-476.959 197.305-197.529 379.3-300.89 457.069-300.89 8.104 0 18.962 1.185 24.663 6.886l104.482 118.96-181.674 155.89-140.131-85.008c-12.556-7.687-28.763-5.669-39.173 4.74l-319.724 320.076c-10.41 10.442-12.364 26.617-4.74 39.269l84.912 140.131-156.499 181.866z" />
<glyph unicode="&#xe930;" glyph-name="call-hold" horiz-adv-x="1022" d="M926.469 544.218h95.93v96.058h-95.93v-96.058zM766.607 640.276v-96.058h95.93v96.058h-95.93zM787.49 345.472l223.794-192.084c6.502-5.573 10.474-13.517 11.082-22.037s-2.21-16.944-7.879-23.382l-126.39-143.943c-0.448-0.48-1.794-1.89-2.274-2.37-16.976-17.008-40.486-25.624-69.857-25.624-109.447 0-311.332 128.44-502.263 319.596-212.551 212.904-379.876 476.319-288.398 567.956l144.584 128.697c6.406 5.701 14.766 8.744 23.35 8.008 8.552-0.577 16.527-4.548 22.101-11.050l192.821-224.050c9.032-10.506 10.282-25.656 3.107-37.507l-83.887-138.594 284.234-284.587 138.498 84.047c11.755 7.143 26.841 5.958 37.379-3.075zM623.304 196.756c-12.588-7.687-28.731-5.669-39.173 4.74l-319.724 320.108c-10.41 10.442-12.364 26.617-4.708 39.237l84.88 140.131-156.499 181.866-118.063-104.962c-37.892-38.020 55.38-243.14 288.879-476.959 197.305-197.529 379.268-300.89 457.069-300.89 8.104 0 18.962 1.185 24.663 6.886l104.45 118.96-181.642 155.89-140.131-85.008zM606.745 640.276v-96.058h95.93v96.058h-95.93z" />
<glyph unicode="&#xe931;" glyph-name="call-in" horiz-adv-x="1022" d="M1012.319 905.061c12.483 12.515 12.483 32.764 0 45.247-12.483 12.515-32.7 12.515-45.183 0l-297.027-297.348v146.717c0 17.714-14.312 32.026-31.962 32.026s-30.422-12.547-30.422-30.229v-217.925c-2.696-10.558-0.449-22.174 7.83-30.454 6.258-6.258 14.441-9.402 22.592-9.402 1.829 0 3.594 0.738 5.391 1.059h220.909c17.65 0 29.395 13.285 29.395 30.935 0 17.714-14.312 31.994-31.962 31.994h-146.588l297.027 297.38zM326.871 548.571l284.127-284.48 138.437 83.98c11.777 7.188 26.827 5.969 37.353-3.049l223.733-191.996c6.482-5.552 10.461-13.51 11.071-22.046 0.61-8.504-2.214-16.944-7.862-23.362l-126.339-143.861c-0.449-0.513-1.797-1.893-2.278-2.375-17.008-17.008-40.498-25.64-69.86-25.64-109.396 0-311.179 128.393-502.052 319.491-212.47 212.79-379.724 476.123-288.299 567.709l144.535 128.65c6.386 5.712 14.794 8.761 23.362 7.99 8.536-0.546 16.494-4.525 22.078-11.007l192.766-223.99c9.017-10.494 10.269-25.608 3.113-37.481l-83.884-138.534zM187.632 882.181l-118.028-104.903c-37.866-37.995 55.356-243.052 288.78-476.797 197.227-197.451 379.146-300.75 456.869-300.75 8.119 0 18.965 1.187 24.645 6.867l104.454 118.926-181.599 155.83-140.074-84.975c-12.547-7.67-28.721-5.68-39.15 4.717l-319.587 320.004c-10.397 10.397-12.355 26.603-4.749 39.214l84.847 140.106-156.408 181.759z" />
<glyph unicode="&#xe932;" glyph-name="cancel-circle" d="M512-64c-282.304 0-512 229.664-512 512 0 282.304 229.696 512 512 512s512-229.696 512-512c0-282.336-229.696-512-512-512zM512 896c-247.040 0-448-200.96-448-448 0-247.008 200.96-448 448-448s448 200.992 448 448c0 247.040-200.96 448-448 448zM694.624 265.376c12.512 12.48 12.512 32.768 0 45.248l-137.376 137.376 137.376 137.376c12.512 12.48 12.512 32.736 0 45.216-12.512 12.544-32.736 12.544-45.248 0l-137.376-137.344-137.376 137.344c-12.512 12.544-32.736 12.544-45.248 0-12.512-12.48-12.512-32.736 0-45.216l137.376-137.376-137.376-137.376c-12.512-12.48-12.512-32.768 0-45.248 6.24-6.24 14.432-9.376 22.624-9.376s16.384 3.136 22.624 9.376l137.376 137.376 137.376-137.376c6.24-6.24 14.432-9.376 22.624-9.376s16.384 3.136 22.624 9.376z" />
<glyph unicode="&#xe933;" glyph-name="cancel-square-2" d="M992-64h-960c-17.664 0-32 14.336-32 32v960c0 17.696 14.336 31.968 32 31.968h960c17.664 0 32-14.272 32-31.968v-960c0-17.664-14.336-32-32-32zM914.784 0l-402.784 402.752-402.752-402.752h805.536zM466.752 448.032l-402.752 402.752v-805.536l402.752 402.784zM109.28 896l402.72-402.72 402.752 402.72h-805.472zM557.28 448.032l402.72-402.752v805.472l-402.72-402.72z" />
<glyph unicode="&#xe934;" glyph-name="cart-1" horiz-adv-x="1023" d="M1021.312 631.296l-126.112-448c-3.904-13.792-16.448-23.296-30.784-23.296h-418.72c0 0 0 0 0 0-0.032 0-0.032 0-0.032 0-3.968 0-7.744 0.928-11.36 2.304-1.216 0.48-2.208 1.152-3.36 1.76-2.24 1.184-4.32 2.528-6.24 4.224-1.056 0.96-1.984 1.952-2.944 3.072-1.536 1.76-2.816 3.712-3.936 5.856-0.736 1.376-1.408 2.688-1.952 4.16-0.256 0.736-0.736 1.28-0.96 2.048l-122.624 440.8c-2.752 4.736-4.736 9.92-4.736 15.776 0 0.256 0.128 0.48 0.128 0.736l-60.352 216.992c-5.6 20.032-29.568 38.272-50.304 38.272h-145.12c-17.664 0-31.968 14.336-31.968 32s14.304 32 31.968 32h145.12c49.408 0 98.528-37.376 111.84-85.056l56.448-202.944h645.248c10.016 0 19.424-4.704 25.472-12.704 6.048-7.968 8-18.336 5.28-28zM363.104 608l106.848-384h370.272l108.096 384h-585.216zM495.264 96c-44.064 0-79.904-35.904-79.904-80s35.84-80 79.904-80c44.064 0 79.872 35.904 79.872 80s-35.808 80-79.872 80zM782.848 96c-44.064 0-79.904-35.904-79.904-80s35.84-80 79.904-80c44.064 0 79.872 35.904 79.872 80s-35.808 80-79.872 80z" />
<glyph unicode="&#xe935;" glyph-name="cart-1-add" horiz-adv-x="1023" d="M1021.056 598.72c2.944 9.664 1.12 20.192-4.896 28.352-6.048 8.128-15.584 12.928-25.696 12.928h-63.904c-17.664 0-31.936-14.336-31.936-32s14.272-32 31.936-32h20.832l-106.72-352h-370.784l-97.92 352h43.328c17.664 0 31.968 14.336 31.968 32s-14.304 32-31.968 32h-61.152l-65.344 234.944c-13.312 47.68-62.4 85.056-111.84 85.056h-145.12c-17.664 0-31.936-14.336-31.936-32s14.272-32 31.936-32h145.12c20.736 0 44.704-18.24 50.304-38.272l187.584-674.304c0.224-0.768 0.704-1.312 0.96-2.048 0.544-1.472 1.216-2.784 1.952-4.16 1.12-2.144 2.4-4.096 3.936-5.856 0.96-1.12 1.888-2.112 2.976-3.072 1.888-1.696 3.968-3.040 6.208-4.224 1.152-0.608 2.144-1.28 3.36-1.76 3.616-1.376 7.392-2.304 11.36-2.304h0.032c0 0 0 0 0 0h418.72c14.080 0 26.496 9.216 30.592 22.688l126.112 416.032zM798.752 576c17.664 0 31.936 14.336 31.936 32s-14.272 32-31.936 32h-95.872v96c0 17.664-14.272 32-31.936 32s-30.944-14.336-30.944-32v-96h-96.896c-17.632 0-31.936-14.336-31.936-32s14.304-32 31.936-32h96.896v-96c0-17.664 13.28-32 30.944-32s31.936 14.336 31.936 32v96h95.872zM495.2 96c-44.064 0-79.904-35.904-79.904-80s35.84-80 79.904-80c44.064 0 79.872 35.904 79.872 80s-35.808 80-79.872 80zM782.784 96c-44.064 0-79.904-35.904-79.904-80s35.84-80 79.904-80c44.064 0 79.872 35.904 79.872 80s-35.808 80-79.872 80z" />
<glyph unicode="&#xe936;" glyph-name="cart-1-loaded" horiz-adv-x="1023" d="M1021.312 631.296l-126.144-448c-3.872-13.76-16.448-23.296-30.752-23.296h-418.72c0 0 0 0-0.032 0 0 0 0 0 0 0-3.968 0-7.744 0.896-11.36 2.304-1.216 0.48-2.24 1.152-3.36 1.76-2.24 1.184-4.32 2.528-6.24 4.224-1.088 0.96-1.984 1.952-2.944 3.072-1.536 1.76-2.816 3.712-3.936 5.856-0.736 1.344-1.408 2.688-1.952 4.16-0.256 0.736-0.736 1.28-0.96 2.048l-122.624 440.8c-2.752 4.736-4.736 9.92-4.736 15.776 0 0.256 0.128 0.48 0.128 0.736l-60.384 216.992c-5.568 20.032-29.536 38.272-50.304 38.272h-145.088c-17.664 0-31.968 14.336-31.968 32s14.304 32 31.968 32h145.088c49.44 0 98.56-37.376 111.84-85.056l56.48-202.944h73.44l230.432 215.392c12.288 11.488 31.328 11.488 43.616 0l230.464-215.392h67.296c10.016 0 19.424-4.704 25.44-12.672 6.080-8 8.032-18.368 5.312-28.032zM671.008 820.224l-158.592-148.224h317.152l-158.56 148.224zM363.104 608l106.848-384h370.272l108.096 384h-585.216zM495.232 96c-44.064 0-79.872-35.904-79.872-80s35.808-80 79.872-80c44.064 0 79.904 35.904 79.904 80s-35.84 80-79.904 80zM782.848 96c-44.064 0-79.904-35.904-79.904-80s35.84-80 79.904-80c44.064 0 79.872 35.904 79.872 80s-35.808 80-79.872 80z" />
<glyph unicode="&#xe937;" glyph-name="cart-2" d="M992 160c17.696 0 32 14.336 32 32s-14.304 32-32 32h-583.168l-124.064 647.168c-9.536 49.824-56.736 88.832-107.456 88.832h-145.312c-17.696 0-32-14.336-32-32s14.304-32 32-32h145.312c20 0 40.832-17.216 44.608-36.896l129.024-673.12c0.256-1.344 0.992-2.368 1.376-3.616 0.512-1.6 0.992-3.104 1.76-4.576 1.088-2.144 2.432-4.032 3.936-5.856 0.96-1.152 1.824-2.336 2.944-3.36 1.888-1.728 4.032-3.008 6.272-4.256 1.184-0.64 2.208-1.472 3.456-1.952 3.68-1.472 7.584-2.368 11.648-2.368 0 0 0.032 0 0.032 0s0 0 0 0h609.632zM432 96c-44.128 0-80-35.904-80-80s35.872-80 80-80c44.128 0 80 35.904 80 80s-35.872 80-80 80zM880 96c-44.128 0-80-35.904-80-80s35.872-80 80-80c44.128 0 80 35.904 80 80s-35.872 80-80 80z" />
<glyph unicode="&#xe938;" glyph-name="cart-2-add" d="M992 160c17.696 0 32 14.336 32 32s-14.304 32-32 32h-583.168l-124.032 647.168c-9.568 49.824-56.8 88.832-107.488 88.832h-145.312c-17.696 0-32-14.336-32-32s14.304-32 32-32h145.312c20 0 40.832-17.248 44.608-36.896l129.024-673.12c0.256-1.312 0.96-2.368 1.376-3.616 0.512-1.6 0.992-3.104 1.76-4.576 1.056-2.144 2.432-4.032 3.936-5.856 0.96-1.152 1.824-2.336 2.944-3.36 1.888-1.728 4.032-3.008 6.272-4.256 1.184-0.64 2.208-1.472 3.456-1.952 3.68-1.472 7.584-2.368 11.648-2.368h0.032c0 0 0 0 0 0h609.632zM800 480.672c17.696 0 32 14.336 32 32 0 17.696-14.304 32-32 32h-96v96c0 17.696-14.304 32-32 32s-32-14.304-32-32v-96h-96c-17.696 0-32-14.304-32-32 0-17.664 14.304-32 32-32h96v-96c0-17.664 14.304-32 32-32s32 14.336 32 32v96h96zM432 96c-44.128 0-80-35.904-80-80s35.872-80 80-80c44.128 0 80 35.904 80 80s-35.872 80-80 80zM880 96c-44.128 0-80-35.904-80-80s35.872-80 80-80c44.128 0 80 35.904 80 80s-35.872 80-80 80z" />
<glyph unicode="&#xe939;" glyph-name="cart-3" horiz-adv-x="1020" d="M997.44 225.312l-362.080-106.592c1.088-7.488 2.304-14.944 2.304-22.72 0-88.224-71.552-160-159.456-160-87.936 0-159.488 71.776-159.488 160 0 60.992 34.592 113.504 84.768 140.48l-176.384 621.216c-5.664 20.032-29.76 38.304-50.56 38.304h-144.832c-17.632 0-31.904 14.336-31.904 32s14.272 32 31.904 32h144.832c49.28 0 98.432-37.248 111.904-84.8l176.224-620.576c4.544 0.384 8.896 1.376 13.536 1.376 57.504 0 107.552-31.008 135.616-76.928l365.664 107.616c17.024 4.96 34.624-4.736 39.584-21.696s-4.736-34.72-21.632-39.68zM478.208 192c-52.768 0-95.68-43.072-95.68-96s42.912-96 95.68-96c52.736 0 95.648 43.072 95.648 96s-42.912 96-95.648 96z" />
<glyph unicode="&#xe93a;" glyph-name="cart-3-loaded" horiz-adv-x="1020" d="M997.152 225.312l-362.048-106.592c1.056-7.488 2.272-14.944 2.272-22.72 0-88.224-71.52-160-159.456-160-87.904 0-159.456 71.776-159.456 160 0 60.992 34.592 113.504 84.768 140.48l-176.384 621.216c-5.664 20.032-29.792 38.304-50.592 38.304h-144.832c-17.6 0-31.872 14.336-31.872 32s14.272 32 31.872 32h144.832c49.312 0 98.464-37.248 111.936-84.8l176.224-620.576c4.512 0.384 8.864 1.376 13.504 1.376 57.504 0 107.584-31.008 135.616-76.96l365.696 107.648c16.992 5.024 34.624-4.736 39.584-21.696s-4.736-34.72-21.664-39.68zM477.92 192c-52.736 0-95.68-43.072-95.68-96s42.944-96 95.68-96c52.768 0 95.68 43.072 95.68 96s-42.912 96-95.68 96zM901.664 385.344l-318.912-96c-3.040-0.928-6.112-1.344-9.152-1.344-13.728 0-26.4 8.96-30.56 22.784l-95.68 320.032c-5.024 16.896 4.544 34.752 21.408 39.84l318.912 96c16.928 5.152 34.656-4.544 39.712-21.44l95.68-320c5.056-16.96-4.512-34.784-21.408-39.872zM775.456 696.16l-257.824-77.6 77.376-258.72 257.792 77.632-77.344 258.688z" />
<glyph unicode="&#xe93b;" glyph-name="check" d="M382.304 67.232c-7.872 0-15.52 2.944-21.376 8.288l-349.632 318.56c-12.992 11.84-13.952 31.968-2.144 44.992 11.808 12.992 31.904 13.984 44.896 2.144l325.504-296.544 582.624 676.032c11.488 13.344 31.552 14.848 44.864 3.328 13.28-11.52 14.72-31.648 3.264-44.96l-603.936-700.768c-5.6-6.528-13.568-10.496-22.144-11.008-0.64-0.032-1.28-0.064-1.92-0.064z" />
<glyph unicode="&#xe93c;" glyph-name="check-circle" d="M512-64c-282.304 0-512 229.664-512 512 0 282.304 229.696 512 512 512s512-229.696 512-512c0-282.336-229.696-512-512-512zM512 896c-247.040 0-448-200.96-448-448 0-247.008 200.96-448 448-448s448 200.992 448 448c0 247.040-200.96 448-448 448zM473.472 265.472l317.248 320c12.448 12.544 12.352 32.8-0.192 45.248-12.544 12.48-32.832 12.384-45.248-0.192l-296.384-298.944-172.16 146.368c-13.504 11.456-33.664 9.824-45.12-3.68-11.456-13.44-9.792-33.664 3.648-45.088l194.752-165.568c5.984-5.12 13.376-7.616 20.736-7.616 8.256 0 16.512 3.2 22.72 9.472z" />
<glyph unicode="&#xe93d;" glyph-name="check-circle-2" horiz-adv-x="1023" d="M1015.688 907.012c11.361 13.48 9.628 33.667-3.883 45.028-13.48 11.393-33.667 9.66-45.060-3.819l-490.914-582.993-199.37 170.902c-13.351 11.458-33.571 9.917-45.092-3.466-11.49-13.415-9.949-33.603 3.466-45.125l223.858-191.86c5.841-4.975 13.223-7.735 20.829-7.735 0.834 0 1.733 0.064 2.6 0.128 8.473 0.674 16.368 4.75 21.856 11.297l511.711 607.641zM626.737 801.39c16.111-7.189 35.047 0.032 42.268 16.143 7.189 16.143-0.032 35.047-16.176 42.268-59.952 26.767-103.697 35.817-173.309 35.817-264.521 0-479.713-215.224-479.713-479.745 0-264.489 215.192-479.681 479.713-479.681 264.489 0 479.713 215.192 479.713 479.681 0 54.304-8.922 91.725-24.263 138.005-5.584 16.753-23.589 25.9-40.439 20.284-16.785-5.552-25.836-23.653-20.284-40.407 13.64-41.049 21.022-72.020 21.022-117.882 0-229.217-186.5-415.717-415.749-415.717s-415.749 186.5-415.749 415.717c0 229.249 186.5 415.781 415.749 415.781 60.177 0 95.962-7.35 147.216-30.265z" />
<glyph unicode="&#xe93e;" glyph-name="check-square" d="M992-64h-960c-17.664 0-32 14.336-32 32v960c0 17.696 14.336 31.968 32 31.968h960c17.664 0 32-14.272 32-31.968v-960c0-17.664-14.336-32-32-32zM960 896h-896v-896h896v896zM276.736 477.952c-13.504 11.456-33.664 9.824-45.12-3.68-11.456-13.44-9.792-33.632 3.648-45.088l194.752-165.568c5.984-5.088 13.376-7.616 20.736-7.616 8.256 0 16.512 3.2 22.72 9.472l317.248 320c12.448 12.544 12.352 32.8-0.192 45.248-12.544 12.48-32.832 12.384-45.248-0.192l-296.384-298.944-172.16 146.368z" />
<glyph unicode="&#xe93f;" glyph-name="check-square-2" horiz-adv-x="1023" d="M1015.655 907.012c11.361 13.48 9.628 33.667-3.883 45.028-13.48 11.393-33.667 9.66-45.060-3.819l-490.914-582.993-199.37 170.902c-13.383 11.458-33.571 9.917-45.092-3.466-11.49-13.415-9.949-33.603 3.466-45.125l223.858-191.86c5.841-4.975 13.223-7.735 20.829-7.735 0.867 0 1.733 0.064 2.568 0.128 8.505 0.674 16.4 4.75 21.888 11.297l511.711 607.641zM609.791 834.64c17.652 0 29.591 11.329 29.591 28.981 0 17.684-14.314 31.998-31.966 31.998h-575.675c-17.652 0-31.966-14.314-31.966-31.998v-895.462c0-17.652 14.314-31.966 31.966-31.966h895.462c17.652 0 31.998 14.314 31.998 31.966v575.675c0 17.652-14.346 31.966-31.998 31.966s-28.564-12.356-28.564-30.008v-545.603l-834.901-0.032 0.449 834.483h545.603z" />
<glyph unicode="&#xe940;" glyph-name="clipboard-1" horiz-adv-x="768" d="M736-64h-704c-17.664 0-32 14.304-32 32v832c0 17.664 14.336 32 32 32h177.792c17.824 30.592 47.584 53.312 83.168 61.024 12.384 38.688 48.288 66.976 91.040 66.976s78.656-28.288 91.040-66.976c35.584-7.712 65.344-30.432 83.168-61.024h177.792c17.664 0 32-14.336 32-32v-832c0-17.696-14.336-32-32-32zM448 832c-17.664 0-32 14.304-32 32 0 17.664-14.368 32-32 32s-32-14.336-32-32c0-17.696-14.336-32-32-32-35.296 0-64-28.704-64-64h256c0 35.296-28.704 64-64 64zM704 768h-128v-32c0-17.664-14.336-32-32-32h-320c-17.664 0-32 14.336-32 32v32h-128v-768h640v768z" />
<glyph unicode="&#xe941;" glyph-name="clipboard-2" horiz-adv-x="768" d="M736-64h-704c-17.664 0-32 14.304-32 32v896c0 17.696 14.336 32 32 32h160v32c0 17.664 14.336 32 32 32h320c17.664 0 32-14.336 32-32v-32h160c17.664 0 32-14.304 32-32v-896c0-17.696-14.336-32-32-32zM512 896h-256v-32c0-17.664 14.368-32 32-32h192c17.632 0 32 14.336 32 32v32zM704 832h-133.888c-13.248-37.184-48.448-64-90.112-64h-192c-41.664 0-76.864 26.816-90.112 64h-133.888v-832h640v832z" />
<glyph unicode="&#xe942;" glyph-name="clipboard-check" horiz-adv-x="768" d="M736-64h-704c-17.664 0-32 14.304-32 32v896c0 17.696 14.336 32 32 32h160v32c0 17.664 14.336 32 32 32h320c17.664 0 32-14.336 32-32v-32h160c17.664 0 32-14.304 32-32v-896c0-17.696-14.336-32-32-32zM512 896h-256v-32c0-17.664 14.368-32 32-32h192c17.632 0 32 14.336 32 32v32zM704 832h-133.888c-13.248-37.184-48.448-64-90.112-64h-192c-41.664 0-76.864 26.816-90.112 64h-133.888v-832h640v832zM244.544 408.544c-13.536 11.392-33.728 9.536-45.088-4-11.328-13.536-9.536-33.728 4-45.088l114.592-95.968c5.984-5.024 13.28-7.488 20.544-7.488 8.672 0 17.312 3.488 23.584 10.368l205.408 224c11.936 13.024 11.072 33.28-1.952 45.216s-33.28 11.040-45.216-1.952l-184.736-201.44-91.136 76.352z" />
<glyph unicode="&#xe943;" glyph-name="clock" d="M512-64c-282.304 0-512 229.664-512 512s229.696 512 512 512c282.304 0 512-229.664 512-512s-229.696-512-512-512zM512 896c-247.040 0-448-200.96-448-448s200.96-448 448-448c247.040 0 448 200.96 448 448s-200.96 448-448 448zM674.272 221.728c7.232 0 14.496 2.464 20.48 7.456 13.568 11.328 15.36 31.52 4.064 45.088l-154.816 185.344v276.384c0 17.664-14.304 32-32 32s-32-14.336-32-32v-288c0-1.568 0.672-2.88 0.896-4.384 0.288-2.176 0.512-4.32 1.28-6.4 0.768-2.144 1.984-3.968 3.168-5.888 0.8-1.248 1.12-2.688 2.080-3.84l162.272-194.24c6.336-7.584 15.424-11.52 24.576-11.52z" />
<glyph unicode="&#xe944;" glyph-name="close" horiz-adv-x="1021" d="M555.103 448.096l456.092-457.408c12.485-12.485 12.485-32.736 0-45.253-6.226-6.258-14.378-9.372-22.562-9.372-8.152 0-16.304 3.113-22.562 9.372l-456.092 457.408-456.092-457.408c-6.226-6.258-14.41-9.372-22.562-9.372-8.184 0-16.336 3.113-22.562 9.372-12.485 12.517-12.485 32.768 0 45.253l456.060 457.408-456.060 457.376c-12.485 12.485-12.485 32.768 0 45.253 12.453 12.517 32.64 12.517 45.125 0l456.060-457.376 456.060 457.408c12.485 12.485 32.672 12.485 45.157 0 12.453-12.485 12.453-32.768 0-45.253l-456.060-457.408z" />
<glyph unicode="&#xe945;" glyph-name="contract-2" horiz-adv-x="1021" d="M747.157 640.253l264.584 265.386c12.483 12.483 12.483 32.732 0 45.247-12.451 12.483-32.636 12.483-45.087 0l-264.616-265.386v146.749c0 17.682-14.28 31.994-31.898 31.994-17.65 0-30.261-12.034-30.261-29.716v-217.732c-2.984-10.75-0.738-22.688 7.702-31.16 6.226-6.226 14.376-9.37 22.559-9.37 2.663 0 5.263 0.866 7.862 1.54h218.599c17.618 0 28.785 12.804 28.785 30.454 0 17.682-14.28 31.994-31.898 31.994h-146.332zM351.067 32.303c17.618 0 31.898 14.312 31.898 31.994v223.99c0 0.096-0.032 0.16-0.032 0.257-0.064 4.075-0.834 8.119-2.407 11.938-3.241 7.83-9.467 14.088-17.265 17.329-3.915 1.637-8.087 2.471-12.258 2.471h-223.284c-17.65 0-31.898-14.344-31.898-31.994 0-17.682 14.248-31.994 31.898-31.994h146.332l-264.616-265.354c-12.451-12.483-12.451-32.764 0-45.247 6.226-6.258 14.409-9.402 22.559-9.402s16.334 3.145 22.559 9.402l264.584 265.354v-146.749c0-17.682 14.28-31.994 31.93-31.994zM373.627 585.635c6.226 6.258 9.338 14.441 9.338 22.624 0 0 0 0 0 0v223.99c0 17.682-14.28 31.994-31.898 31.994-17.65 0-31.93-14.312-31.93-31.994v-146.749l-264.584 265.386c-12.451 12.483-32.668 12.483-45.119 0-12.451-12.515-12.451-32.764 0-45.247l264.616-265.386h-146.332c-17.65 0-31.898-14.312-31.898-31.994 0-17.65 12.964-30.454 30.614-30.454h216.77c2.599-0.674 5.167-1.54 7.862-1.54 8.151 0 16.334 3.145 22.559 9.37zM656.085 316.59c-3.016-1.508-6.001-3.177-8.504-5.712-8.44-8.44-10.686-20.377-7.702-31.128v-215.39c0-17.682 12.611-32.058 30.261-32.058 17.618 0 31.898 14.312 31.898 31.994v146.749l264.616-265.354c6.226-6.258 14.376-9.402 22.559-9.402 8.151 0 16.302 3.145 22.527 9.402 12.483 12.483 12.483 32.764 0 45.247l-264.616 265.354h146.364c17.618 0 31.898 14.312 31.898 31.994 0 17.65-14.28 31.994-31.898 31.994h-223.316c-4.108 0-8.247-0.802-12.13-2.375-0.738-0.321-1.252-0.963-1.958-1.316z" />
<glyph unicode="&#xe946;" glyph-name="contract-3" d="M960-64h-896c-35.296 0-64 28.736-64 64v896c0 35.296 28.704 64 64 64h896c35.296 0 64-28.704 64-64v-896c0-35.264-28.704-64-64-64zM64 45.248l274.752 274.752h-114.752c-17.664 0-32 14.336-32 32s14.336 32 32 32h191.936c4.224 0 8.384-0.864 12.32-2.496 3.264-1.344 6.080-3.456 8.672-5.76 0.544-0.448 1.184-0.608 1.696-1.12 0.32-0.32 0.416-0.768 0.736-1.088 2.528-2.752 4.704-5.792 6.176-9.28 1.6-3.936 2.464-8.096 2.464-12.256 0 0 0 0 0 0v-192c0-17.664-14.336-32-32-32s-32 14.336-32 32v114.752l-274.784-274.752h850.688l0.096 850.752-274.752-274.752h114.752c17.664 0 32-14.336 32-32s-14.336-32-32-32h-192c-4.16 0-8.32 0.864-12.224 2.496-3.648 1.472-6.816 3.712-9.632 6.368-0.224 0.224-0.544 0.288-0.768 0.512-0.128 0.128-0.16 0.288-0.288 0.416-2.784 2.88-5.056 6.208-6.624 9.952-1.6 3.936-2.464 8.096-2.464 12.256v192c0 17.664 14.336 32 32 32s32-14.336 32-32v-114.752l274.784 274.752h-850.784v-850.752z" />
<glyph unicode="&#xe947;" glyph-name="contract-4" d="M1014.309 905.639c12.515 12.483 12.515 32.764 0 45.279-12.483 12.483-32.732 12.483-45.247 0l-585.326-585.39v242.731c0 17.714-14.344 32.026-32.026 32.026-17.65 0-30.807-12.708-30.807-30.389v-315.576c-1.958-10.076 0.385-20.827 8.183-28.657 6.258-6.226 14.441-9.37 22.624-9.37h320.004c17.65 0 31.994 14.344 31.994 31.994 0 17.682-14.344 31.994-31.994 31.994h-242.763l585.358 585.358zM641.805 898.708c17.682 0 29.908 11.905 29.908 29.555 0 17.682-14.344 31.994-31.994 31.994h-607.982c-17.682 0-31.994-14.312-31.994-31.994v-959.948c0-17.65 14.312-31.994 31.994-31.994h959.948c17.682 0 31.994 14.344 31.994 31.994v607.95c0 17.714-14.312 31.994-31.994 31.994-17.65 0-28.977-12.772-28.977-30.454v-577.625l-898.976 0.128 0.449 898.399h577.625z" />
<glyph unicode="&#xe948;" glyph-name="delivery-2" d="M1020.482 264.205c0-28.961-23.499-52.513-52.355-52.513h-29.88c-11.71-45.161-52.329-78.769-100.982-78.769s-89.272 33.608-100.982 78.769h-29.88c-9.715 0-18.406 2.836-25.863 7.483-7.798-4.647-16.778-7.483-26.493-7.483h-160.742c-11.71-45.161-52.329-78.769-100.982-78.769s-89.272 33.608-100.982 78.769h-56.057c-28.856 0-52.355 23.552-52.355 52.513v26.256c0 14.494 11.71 26.256 26.178 26.256s26.178-11.763 26.178-26.256v-26.256h56.057c11.71 45.161 52.329 78.769 100.982 78.769s89.272-33.608 100.982-78.769h163.105v383.186c-1.47 3.256-2.363 6.827-2.363 10.66s0.893 7.404 2.363 10.686v41.826h-421.127c0-14.494-11.71-26.256-26.178-26.256s-26.178 11.763-26.178 26.256c0 28.961 23.499 52.513 52.355 52.513h418.763c28.856 0 52.355-23.552 52.355-52.513v-26.256h209.395c10.896 0 20.664-6.774 24.497-17.040l78.533-210.051c0.578-1.549 0.473-3.125 0.735-4.7 0.289-1.523 0.919-2.914 0.919-4.516v-183.795zM392.323 290.462c-28.856 0-52.355-23.552-52.355-52.513s23.499-52.513 52.355-52.513c28.856 0 52.329 23.552 52.329 52.513s-23.473 52.513-52.329 52.513zM837.264 185.436c28.856 0 52.355 23.552 52.355 52.513s-23.499 52.513-52.355 52.513c-28.856 0-52.355-23.552-52.355-52.513s23.499-52.513 52.355-52.513zM706.402 448v-183.795h29.88c11.71 45.161 52.329 78.769 100.982 78.769s89.272-33.608 100.982-78.769h33.241v157.538h-134.223c-14.467 0-23.316 11.763-23.316 26.256v183.795h-107.546v-183.795zM897.628 631.795h-34.186v-157.538h93.079l-58.893 157.538zM313.79 605.538c0 14.494-11.71 26.256-26.178 26.256h-157.040c-14.467 0-26.178-11.763-26.178-26.256s11.71-26.256 26.178-26.256h157.040c14.467 0 26.178 11.763 26.178 26.256zM261.461 500.513c0 14.494-11.71 26.256-26.178 26.256h-209.395c-14.467 0-26.178-11.763-26.178-26.256s11.71-26.256 26.178-26.256h209.395c14.467 0 26.178 11.763 26.178 26.256zM104.395 421.744c-14.441 0-26.151-11.763-26.151-26.256s11.71-26.256 26.151-26.256h104.711c14.467 0 26.178 11.763 26.178 26.256s-11.71 26.256-26.178 26.256h-104.711z" />
<glyph unicode="&#xe949;" glyph-name="download-2" d="M960-64c35.296 0 64 28.704 64 64v256c0 17.664-14.336 32-32 32s-32-14.336-32-32v-256h-896v256c0 17.664-14.336 32-32 32s-32-14.336-32-32v-256c0-35.296 28.704-64 64-64h896zM537.28 205.312l221.28 219.968c12.544 12.512 12.608 32.736 0.128 45.312-12.48 12.512-32.704 12.576-45.248 0.096l-169.44-168.448v625.76c0 17.696-14.336 32-32 32s-32-14.304-32-32v-625.728l-169.44 168.416c-12.512 12.448-32.768 12.384-45.248-0.096-12.48-12.576-12.416-32.8 0.128-45.312l221.28-219.968c5.824-7.872 14.72-13.312 25.28-13.312s19.456 5.44 25.28 13.312z" />
<glyph unicode="&#xe94a;" glyph-name="edit-1" horiz-adv-x="1023" d="M1023.295 826.691c-2.050-28.347-16.079-56.277-40.518-80.748-0.032 0-0.064-0.032-0.064-0.032l-448.036-448.26c-3.523-3.523-7.783-6.182-12.492-7.751l-192.052-64.060c-3.331-1.089-6.726-1.634-10.121-1.634-8.36 0-16.527 3.267-22.613 9.385-8.584 8.584-11.595 21.236-7.751 32.767l63.996 192.148c1.602 4.708 4.228 8.968 7.751 12.492l448.036 448.292c0.032 0 0.032 0.032 0.032 0.032 24.567 24.599 52.721 38.5 81.484 40.23 22.709 1.409 57.59-4.452 93.303-40.23 35.297-35.265 40.71-69.857 39.045-92.631zM938.992 874.063c-15.15 15.15-29.98 22.229-44.201 21.556-16.271-0.993-30.749-12.268-40.038-21.556 0-0.032-0.032-0.032-0.064-0.064l-442.687-442.943-41.383-124.212 124.148 41.415 442.751 442.975c9.353 9.385 20.787 23.926 21.941 40.102 0.993 13.773-5.894 28.122-20.467 42.728zM576.060 800.619c17.681 0 31.998 14.349 31.998 32.030s-14.317 32.030-31.998 32.030h-544.094c-17.681 0-32.030-14.349-32.030-32.030v-864.619c0-17.713 14.349-32.062 32.030-32.062h864.17c17.649 0 31.998 14.349 31.998 32.062v544.382c0 17.681-14.349 31.998-31.998 31.998-17.681 0-32.030-14.317-32.030-31.998v-512.384h-800.142v800.591h512.096z" />
<glyph unicode="&#xe94b;" glyph-name="email" d="M928 96h-832c-52.928 0-96 43.072-96 96v512c0 52.928 43.072 96 96 96h832c52.928 0 96-43.072 96-96v-512c0-52.928-43.072-96-96-96zM96 160h832c17.632 0 32 14.368 32 32v501.856l-427.168-366.144c-6.016-5.12-13.408-7.712-20.832-7.712s-14.816 2.592-20.832 7.712l-427.168 366.144v-501.856c0-17.632 14.368-32 32-32zM910.816 736h-797.632l398.816-341.856 398.816 341.856z" />
<glyph unicode="&#xe94c;" glyph-name="forward" horiz-adv-x="899" d="M449.32-63.904c-247.768 0-449.32 200.974-449.32 448.036s201.552 448.036 449.32 448.036c6.74 0 13.223-0.802 19.898-1.091l-74.683 74.459c-12.549 12.517-12.549 32.768 0 45.253 12.549 12.517 32.832 12.517 45.381 0l128.377-127.992c12.549-12.485 12.549-32.768 0-45.253l-128.377-127.992c-6.258-6.258-14.475-9.404-22.691-9.404s-16.432 3.145-22.691 9.404c-12.549 12.485-12.549 32.736 0 45.221l72.597 72.405c-5.97 0.289-11.747 0.995-17.812 0.995-212.368 0-385.131-172.282-385.131-384.040s172.763-384.040 385.131-384.040c212.368 0 385.131 172.282 385.131 384.040 0 17.684 14.378 31.998 32.094 31.998s32.094-14.314 32.094-31.998c0-247.062-201.552-448.036-449.32-448.036z" />
<glyph unicode="&#xe94d;" glyph-name="gift" d="M991.936 440.576h-32v-396.768c0-10.816 0-24.704-3.136-37.376-7.328-29.28-43.008-52.512-60.8-52.512h-736c-36.544 0-96 54.592-96 89.888v396.768h-32c-17.696 0-32 14.112-32 31.584v171.584c0 22.624 13.6 49.536 78.4 49.536h119.040c-29.6 24.416-54.496 59.2-54.496 107.904 0 83.84 43.040 126.336 127.968 126.336 51.2 0 164.096-41.184 255.936-188.32 91.84 147.232 204.832 188.32 256.032 188.32 84.928 0 128-42.496 128-126.336 0-48.704-24.896-83.488-54.528-107.904h119.072c10.752 0 25.472 0 37.152-11.488 11.424-11.328 11.392-24.928 11.36-35.84v-173.792c0-17.472-14.304-31.584-32-31.584zM543.968 17.92h352.032c0.256 4.704-0.064 21.888-0.064 25.152l0.064 390.848h-352.032v-416zM160 17.92h319.968v416h-351.968v-390.112c1.472-2.144 26.592-24.32 32-25.888zM78.4 630.112c-6.304 0-10.976-0.192-14.4-0.448v-131.744h415.968v132.192h-401.568zM270.912 864.352c-32.896 0-64 0-64-63.168 0-68.736 102.816-95.488 103.84-95.744 7.456-1.856 13.28-6.464 17.504-12.16h152.192c-95.552 163.2-208.352 171.072-209.536 171.072zM743.040 705.44c1.024 0.256 103.84 27.008 103.84 95.744 0 63.168-31.072 63.168-64 63.168-1.152 0-113.984-7.872-209.536-171.072h152.16c4.224 5.696 10.080 10.304 17.536 12.16zM959.936 630.112h-415.968v-132.192h416.032l-0.064 132.192z" />
<glyph unicode="&#xe94e;" glyph-name="grid-circles" d="M896 320c-70.592 0-128 57.408-128 128 0 70.56 57.408 128 128 128s128-57.44 128-128c0-70.592-57.408-128-128-128zM896 512c-35.296 0-64-28.704-64-64s28.704-64 64-64c35.296 0 64 28.704 64 64s-28.704 64-64 64zM896 704c-70.592 0-128 57.44-128 127.968 0 70.624 57.408 128.032 128 128.032s128-57.408 128-128.032c0-70.528-57.408-127.968-128-127.968zM896 896c-35.296 0-64-28.704-64-64.032 0-35.264 28.704-63.968 64-63.968s64 28.704 64 63.968c0 35.328-28.704 64.032-64 64.032zM512-64c-70.592 0-128 57.408-128 128 0 70.56 57.408 128 128 128s128-57.44 128-128c0-70.592-57.408-128-128-128zM512 128c-35.296 0-64-28.704-64-64s28.704-64 64-64c35.296 0 64 28.704 64 64s-28.704 64-64 64zM512 320c-70.592 0-128 57.408-128 128 0 70.56 57.408 128 128 128s128-57.44 128-128c0-70.592-57.408-128-128-128zM512 512c-35.296 0-64-28.704-64-64s28.704-64 64-64c35.296 0 64 28.704 64 64s-28.704 64-64 64zM512 704c-70.592 0-128 57.44-128 127.968 0 70.624 57.408 128.032 128 128.032s128-57.408 128-128.032c0-70.528-57.408-127.968-128-127.968zM512 896c-35.296 0-64-28.704-64-64.032 0-35.264 28.704-63.968 64-63.968s64 28.704 64 63.968c0 35.328-28.704 64.032-64 64.032zM128-64c-70.592 0-128 57.408-128 128 0 70.56 57.408 128 128 128s128-57.44 128-128c0-70.592-57.408-128-128-128zM128 128c-35.296 0-64-28.704-64-64s28.704-64 64-64c35.296 0 64 28.704 64 64s-28.704 64-64 64zM128 320c-70.592 0-128 57.408-128 128 0 70.56 57.408 128 128 128s128-57.44 128-128c0-70.592-57.408-128-128-128zM128 512c-35.296 0-64-28.704-64-64s28.704-64 64-64c35.296 0 64 28.704 64 64s-28.704 64-64 64zM128 704c-70.592 0-128 57.44-128 127.968 0 70.624 57.408 128.032 128 128.032s128-57.408 128-128.032c0-70.528-57.408-127.968-128-127.968zM128 896c-35.296 0-64-28.704-64-64.032 0-35.264 28.704-63.968 64-63.968s64 28.704 64 63.968c0 35.328-28.704 64.032-64 64.032zM896 192c70.592 0 128-57.44 128-128 0-70.592-57.408-128-128-128s-128 57.408-128 128c0 70.56 57.408 128 128 128zM896 0c35.296 0 64 28.704 64 64s-28.704 64-64 64c-35.296 0-64-28.704-64-64s28.704-64 64-64z" />
<glyph unicode="&#xe94f;" glyph-name="grid-squares-2" d="M960-64h-320c-35.296 0-64 28.704-64 64v320c0 35.296 28.704 64 64 64h320c35.296 0 64-28.704 64-64v-320c0-35.296-28.704-64-64-64zM640 320v-320h319.904l0.096 320h-320zM960 512h-320c-35.296 0-64 28.704-64 64v320c0 35.296 28.704 64 64 64h320c35.296 0 64-28.704 64-64v-320c0-35.296-28.704-64-64-64zM640 896v-320h319.904l0.096 320h-320zM384-64h-320c-35.296 0-64 28.704-64 64v320c0 35.296 28.704 64 64 64h320c35.296 0 64-28.704 64-64v-320c0-35.296-28.704-64-64-64zM64 320v-320h319.904l0.096 320h-320zM384 512h-320c-35.296 0-64 28.704-64 64v320c0 35.296 28.704 64 64 64h320c35.296 0 64-28.704 64-64v-320c0-35.296-28.704-64-64-64zM64 896v-320h319.904l0.096 320h-320z" />
<glyph unicode="&#xe950;" glyph-name="handbag" horiz-adv-x="1019" d="M1007.232-42.528c-10.688-13.6-27.36-21.408-45.792-21.408h-901.376c-17.728 0-34.368 7.392-45.696 20.288s-16.448 30.336-14.080 47.84l82.56 545.888c7.808 50.816 54.368 90.592 105.984 90.592h96.576v96.096c0 0.32 0.192 0.608 0.192 0.928 1.056 122.752 101.568 222.304 225.152 222.304 123.616 0 224.096-99.552 225.152-222.304 0-0.32 0.192-0.608 0.192-0.928v-96.096h96.576c52.032 0 97.824-40.224 104.32-91.584l80.704-545.248c3.808-14.72 0.224-32.736-10.464-46.368zM317.664 448.512v-32l-0.096 32c0.032 0 0.096 0 0.096 0zM671.712 735.84c0 88.288-72.192 160.128-160.96 160.128-88.736 0-160.96-71.84-160.96-160.128v-95.168h321.92v95.168zM703.968 448.512v-32l-0.096 32c0.032 0 0.096 0 0.096 0zM873.184 540.448c-2.464 19.616-21.376 36.192-40.512 36.192h-96.576v-72.96c19.136-11.104 32.192-31.584 32.192-55.2 0-35.296-28.864-64-64.32-64-35.552 0-64.448 28.704-64.448 64 0 23.616 13.024 44.032 32.192 55.168v72.992h-321.92v-72.96c19.168-11.104 32.192-31.584 32.192-55.2 0-35.296-28.864-64-64.32-64-35.52 0-64.448 28.704-64.448 64 0 23.616 13.056 44.032 32.192 55.168v72.992h-96.576c-19.584 0-39.36-16.896-42.304-36.192l-81.728-540.32h888.512l-80.128 540.32zM961.44 0.128v0z" />
<glyph unicode="&#xe951;" glyph-name="heart" d="M955.264 431.808c-0.192-0.224-0.224-0.512-0.448-0.736l-370.592-404.992c-17.536-19.456-41.44-30.24-67.104-30.272 0 0 0 0-0.032 0-25.248 0-49.792 11.072-67.232 30.368l-370.336 404.896c-0.192 0.192-0.256 0.448-0.416 0.672-105.472 106.784-105.12 279.008 1.44 385.12 106.432 105.888 279.104 106.464 386.368 1.92 0 0 0.032 0 0.032-0.032l50.176-41.92 50.24 41.952c0.032 0.032 0.096 0.032 0.096 0.064 107.296 104.48 279.904 103.904 386.336-1.984 106.432-106.112 106.816-278.272 1.472-385.056zM908.096 771.392c-81.984 81.472-215.232 81.44-297.12-0.064-0.32-0.32-0.8-0.448-1.152-0.768-0.384-0.352-0.544-0.8-0.928-1.12l-71.040-59.296c-1.536-1.28-3.392-1.952-5.088-2.912-1.184-0.64-2.208-1.44-3.424-1.92-3.936-1.632-8.032-2.656-12.224-2.656 0 0 0 0-0.032 0 0 0 0 0-0.032 0-4.16 0-8.256 1.024-12.192 2.656-1.248 0.48-2.304 1.312-3.488 1.984-1.696 0.96-3.488 1.6-5.056 2.88l-70.912 59.264c-0.352 0.32-0.512 0.768-0.864 1.12-0.352 0.32-0.832 0.416-1.184 0.768-81.984 81.568-215.296 81.504-297.12 0-81.888-81.568-81.888-214.272 0-295.84 0.192-0.192 0.224-0.416 0.416-0.608s0.448-0.256 0.64-0.48l370.464-404.992c10.784-11.904 27.904-11.872 38.56-0.16l370.72 405.152c0.192 0.224 0.448 0.288 0.64 0.48s0.224 0.416 0.416 0.608c81.824 81.568 81.824 214.272 0 295.904z" />
<glyph unicode="&#xe952;" glyph-name="home" horiz-adv-x="1022" d="M1010.799 360.632c-6.071-5.364-13.619-8.030-21.103-8.030-8.833 0-17.634 3.694-23.93 10.857l-36.264 41.275v-404.493c0-35.332-32.249-64.080-67.421-64.080h-159.542c-35.172 0-62.121 28.748-62.121 64.080v289.084l-256.899-0.771v-288.281c0-35.365-28.619-64.112-63.823-64.112h-159.51c-35.204 0-63.823 28.748-63.823 64.112v408.572l-39.861-45.386c-11.66-13.234-31.863-14.551-45.065-2.827-13.202 11.692-14.454 31.96-2.794 45.193l478.563 544.602c12.109 13.78 35.718 13.78 47.859 0l478.563-544.602c11.628-13.234 10.375-33.502-2.827-45.193zM511.133 880.823l-352.522-401.152v-479.43h160.602v289.084c0 35.332 29.101 63.277 64.305 63.277h255.229c35.172 0 63.791-28.716 63.791-64.048v-288.281l162.722-0.032v477.599l-354.128 402.983z" />
<glyph unicode="&#xe953;" glyph-name="inside" d="M959.872-64c35.328 0 64.064 28.736 64.064 64v896c0 35.296-28.736 64-64.064 64h-544.672c-35.328 0-64.064-28.704-64.064-64v-256c0-17.664 14.336-32 32.032-32s32.032 14.336 32.032 32v256h544.672v-896h-544.672v256c0 17.664-14.336 32-32.032 32s-32.032-14.336-32.032-32v-256c0-35.264 28.736-64 64.064-64h544.672zM520.704 617.376l137.536-137.376h-626.176c-17.696 0-32.032-14.336-32.032-32s14.336-32 32.032-32h626.176l-137.536-137.376c-12.512-12.48-12.512-32.768 0-45.248 6.272-6.24 14.464-9.376 22.656-9.376s16.384 3.136 22.656 9.376l189.504 189.28c7.936 5.824 13.44 14.752 13.44 25.344 0 10.624-5.536 19.584-13.504 25.408l-189.44 189.216c-12.512 12.512-32.8 12.512-45.312 0-12.512-12.48-12.512-32.768 0-45.248z" />
<glyph unicode="&#xe954;" glyph-name="like" horiz-adv-x="1021" d="M1021.12 476.864l-56.512-449.28c-5.568-50.304-51.616-91.584-102.592-91.584h-351.264c-42.304 0-100.896 21.248-133.376 48.384l-90.176 75.296v-27.68c0-17.664-14.272-32-31.936-32h-223.52c-17.664 0-31.936 14.336-31.936 32v576c0 17.664 14.272 32 31.936 32h223.52c17.664 0 31.936-14.336 31.936-32v-32h69.792c15.232 73.792 55.808 268.544 65.568 299.392 15.488 49.024 66.016 84.608 120.128 84.608 70.432 0 127.712-57.44 127.712-128v-256h262.144c25.824 0 50.144-10.688 66.816-29.344 16.672-18.624 24.576-44.064 21.76-69.792zM223.328 576h-159.648v-512h159.648v512zM951.776 503.968c-4.608 5.184-11.456 8.032-19.232 8.032h-294.080c-17.632 0-31.936 14.336-31.936 32v288c0 35.296-28.64 64-63.84 64-26.592 0-52.064-17.184-59.264-39.968-7.872-24.864-45.664-204.064-69.152-318.496-3.040-14.848-16.096-25.536-31.264-25.536h-95.808v-368.992l131.040-109.472c21.408-17.856 64.64-33.536 92.512-33.536h351.264c18.784 0 37.088 16.416 39.168 35.136l56.48 449.28c0.832 7.264-1.248 14.368-5.888 19.552z" />
<glyph unicode="&#xe955;" glyph-name="like-2" d="M714.659-59.625h-186.43c-72.145 0-124.835 19.146-171.318 36.057-37.888 13.777-70.594 25.662-108.358 25.662h-124.307c-8.254 0-16.136 3.258-21.969 9.061-2.917 2.886-71.246 72.673-71.246 237.847 0 159.806 32.954 227.080 34.351 229.872 4.282 8.502 12.288 14.584 21.659 16.446 1.489 0.31 147.518 30.379 232.758 115.029 82.541 82.013 136.72 212.496 145.78 293.64 3.972 34.971 35.592 60.695 71.121 55.451 43.256-6.33 115.836-38.912 115.836-185.716 0-63.86-13.777-140.226-23.304-185.189h209.734c85.861 0 124.307-55.234 124.307-109.94 0-26.903-8.471-47.973-20.48-63.953 27.927-17.036 50.083-46.080 50.083-90.888 0-40.122-19.27-68.143-46.39-85.24 10.178-14.926 16.787-34.351 16.787-58.927 0-55.234-31.775-87.63-67.615-103.517 3.382-9.154 5.461-19.642 5.461-31.527 0-104.169-130.638-104.169-186.461-104.169zM139.295 63.845h109.258c48.78 0 89.926-14.988 129.738-29.448 43.66-15.888 88.809-32.303 149.938-32.303h186.43c124.307 0 124.307 28.672 124.307 42.449 0 16.353-10.923 21.659-11.047 21.69-13.591 5.648-21.318 20.015-18.463 34.382 2.793 14.367 15.422 24.793 30.161 24.948 10.085 0.248 61.502 3.972 61.502 54.024 0 35.312-26.314 38.353-31.589 38.602-16.943 0.807-30.099 14.957-29.572 31.806 0.528 16.694 14.305 29.913 31.061 29.913 13.095-0.465 59.702 2.669 59.702 43.846 0 45.366-48.407 48.562-58.12 48.718-15.701 0.279-28.827 12.164-30.441 27.679s8.564 29.789 23.862 33.264c5.523 1.427 35.095 10.705 35.095 45.18 0 30.627-22.652 48.19-62.154 48.19h-248.584c-9.557 0-18.618 4.406-24.483 11.885-5.896 7.478-8.006 17.284-5.648 26.469 0.248 1.21 30.13 120.956 30.13 208.586 0 52.658-10.892 117.046-62.774 124.68-10.736-95.108-70.315-238.778-163.871-331.683-81.082-80.555-202.783-116.86-247.467-128-7.913-24.111-23.087-83.999-23.087-189.719 0-106.186 31.558-164.088 46.111-185.158z" />
<glyph unicode="&#xe956;" glyph-name="list-1" d="M992 800c17.664 0 32 14.336 32 32 0 17.696-14.336 31.968-32 31.968h-960c-17.664 0-32-14.272-32-31.968 0-17.664 14.336-32 32-32h960zM32 608c-17.664 0-32-14.336-32-32s14.336-32 32-32h640c17.664 0 32 14.336 32 32s-14.336 32-32 32h-640zM32 352c-17.664 0-32-14.336-32-32s14.336-32 32-32h960c17.664 0 32 14.336 32 32s-14.336 32-32 32h-960zM32 96c-17.664 0-32-14.336-32-32s14.336-32 32-32h640c17.664 0 32 14.336 32 32s-14.336 32-32 32h-640z" />
<glyph unicode="&#xe957;" glyph-name="list-2" d="M992 704c17.664 0 32 14.336 32 32s-14.336 32-32 32h-832c-17.664 0-32-14.336-32-32s14.336-32 32-32h832zM0 192v-64h64v64h-64zM0 384v-64h64v64h-64zM0 576v-64h64v64h-64zM0 768v-64h64v64h-64zM160 576c-17.664 0-32-14.336-32-32s14.336-32 32-32h672c17.664 0 32 14.336 32 32s-14.336 32-32 32h-672zM160 384c-17.664 0-32-14.336-32-32s14.336-32 32-32h832c17.664 0 32 14.336 32 32s-14.336 32-32 32h-832zM160 192c-17.664 0-32-14.336-32-32s14.336-32 32-32h672c17.664 0 32 14.336 32 32s-14.336 32-32 32h-672z" />
<glyph unicode="&#xe958;" glyph-name="location-2" horiz-adv-x="768" d="M404.768-56.608c-5.952-5.088-13.376-7.648-20.768-7.648s-14.816 2.56-20.768 7.648c-14.848 12.64-363.232 313.088-363.232 633.472 0 211.2 172.256 383.040 384 383.040s384-171.84 384-383.040c0-320.384-348.384-620.832-363.232-633.472zM384 896.064c-176.448 0-320-143.2-320-319.2 0-248.32 245.984-496.928 320-566.080 73.984 69.152 320 317.76 320 566.080 0 176-143.552 319.2-320 319.2zM384 384c-105.888 0-192 85.888-192 191.488 0 105.632 86.112 191.52 192 191.52s192-85.888 192-191.52c0-105.6-86.112-191.488-192-191.488zM384 703.168c-70.592 0-128-57.28-128-127.68s57.408-127.648 128-127.648c70.592 0 128 57.248 128 127.648s-57.408 127.68-128 127.68z" />
<glyph unicode="&#xe959;" glyph-name="location-3" horiz-adv-x="896" d="M448-64c217.184 0 448 67.296 448 192 0 61.408-59.84 124.896-148.864 158.016-16.608 6.080-35.008-2.304-41.152-18.88-6.176-16.544 2.272-34.976 18.816-41.152 67.104-24.896 107.2-69.408 107.2-97.984 0-53.44-146.080-128-384-128s-384 74.56-384 128c0 28.608 40.064 73.088 107.136 97.984 16.544 6.176 24.992 24.608 18.848 41.152-6.144 16.576-24.544 24.992-41.184 18.88-88.992-33.12-148.8-96.576-148.8-158.016 0-124.704 230.816-192 448-192zM469.44 72.224c-6.112-5.472-13.792-8.224-21.44-8.224s-15.328 2.752-21.44 8.224c-12.192 11.008-298.592 272.48-298.592 551.584 0 185.376 143.552 336.192 320.032 336.192 176.448 0 319.968-150.816 319.968-336.192 0-279.072-286.336-540.576-298.528-551.584zM448 896c-141.184 0-256.032-122.112-256.032-272.192 0-209.184 190.88-418.144 256-483.328 65.12 65.28 256 274.528 256 483.328 0 150.080-114.816 272.192-255.968 272.192zM287.968 639.968c0 88.224 71.776 160.032 160.032 160.032 88.224 0 159.968-71.808 159.968-160.032 0-88.192-71.744-159.968-159.968-159.968-88.256 0-160.032 71.776-160.032 159.968zM543.968 639.968c0 52.96-43.072 96.032-95.968 96.032-52.928 0-96.032-43.072-96.032-96.032 0-52.928 43.104-95.968 96.032-95.968 52.896 0 95.968 43.040 95.968 95.968z" />
<glyph unicode="&#xe95a;" glyph-name="location-4" horiz-adv-x="896" d="M448-64c217.184 0 448 67.296 448 192 0 89.792-129.984 168.64-316.064 191.744-17.664 2.336-33.536-10.272-35.68-27.776-2.176-17.568 10.272-33.536 27.808-35.712 155.488-19.328 259.936-81.92 259.936-128.256 0-53.44-146.080-128-384-128s-384 74.56-384 128c0 46.336 104.448 108.928 259.936 128.256 17.536 2.176 29.984 18.144 27.808 35.68-2.176 17.568-17.888 30.208-35.68 27.808-186.080-23.104-316.064-101.952-316.064-191.744 0-124.704 230.816-192 448-192zM479.2 579.136c0.192-1.344 0.8-2.56 0.8-3.968v-447.168c0-17.664-14.304-32-32-32s-32 14.336-32 32v447.168c0 1.408 0.64 2.624 0.8 3.968-91.008 15.040-160.8 93.664-160.8 188.864 0 105.888 86.080 192 191.936 192 105.92 0 192.064-86.112 192.064-192 0-95.168-69.792-173.824-160.8-188.864zM447.936 896c-70.528 0-127.936-57.44-127.936-128 0-70.592 57.408-128 128-128s128 57.408 128 128c0 70.56-57.44 128-128.064 128z" />
<glyph unicode="&#xe95b;" glyph-name="lock" horiz-adv-x="832" d="M736-64h-640c-52.928 0-96 43.072-96 96v480c0 52.928 43.072 96 96 96h64v96c0 141.152 114.848 256 256 256s256-114.848 256-256v-96h64c52.928 0 96-43.072 96-96v-480c0-52.928-43.072-96-96-96zM608 704c0 105.856-86.112 192-192 192s-192-86.144-192-192v-96h384v96zM768 512c0 17.664-14.368 32-32 32h-640c-17.632 0-32-14.336-32-32v-480c0-17.632 14.368-32 32-32h640c17.632 0 32 14.368 32 32v480zM448 296.896c19.040 11.104 32 31.52 32 55.104 0 35.264-28.704 64-64 64s-64-28.736-64-64c0-23.584 12.96-44 32-55.104v-104.896c0-17.664 14.336-32 32-32s32 14.336 32 32v104.896z" />
<glyph unicode="&#xe95c;" glyph-name="magnifier-1" horiz-adv-x="1021" d="M1011.488-54.624c-6.208-6.272-14.4-9.376-22.56-9.376s-16.32 3.104-22.56 9.376l-336.704 337.696c-66.72-56.704-152.896-91.072-246.976-91.072-211.136 0-382.912 172.288-382.912 384 0 211.744 171.776 384 382.912 384s382.88-172.256 382.88-384c0-94.368-34.272-180.768-90.784-247.68l336.704-337.696c12.48-12.48 12.48-32.768 0-45.248zM382.688 896c-175.968 0-319.072-143.552-319.072-320s143.104-320 319.072-320c175.936 0 319.072 143.552 319.072 320s-143.136 320-319.072 320z" />
<glyph unicode="&#xe95d;" glyph-name="minus-circle" d="M874.016 85.952c-96.704-96.704-225.28-149.952-362.048-149.952s-265.344 53.248-362.016 149.952c-96.704 96.704-149.952 225.28-149.952 362.048s53.248 265.344 149.952 362.016c96.672 96.736 225.248 149.984 362.016 149.984s265.344-53.248 362.048-149.984c96.704-96.672 149.984-225.248 149.984-362.016s-53.28-265.344-149.984-362.048zM828.736 764.768c-84.608 84.64-197.088 131.232-316.768 131.232-119.648 0-232.16-46.592-316.768-131.232-84.608-84.608-131.2-197.088-131.2-316.768s46.592-232.16 131.2-316.8c84.608-84.608 197.12-131.2 316.768-131.2 119.68 0 232.16 46.592 316.768 131.2 84.64 84.64 131.264 197.12 131.264 316.8s-46.624 232.16-131.264 316.768zM736 416c17.664 0 32 14.304 32 31.968s-14.336 32-32 32h-448c-17.664 0-32-14.336-32-32s14.336-31.968 32-31.968h448z" />
<glyph unicode="&#xe95e;" glyph-name="minus-square" d="M992-64h-960c-17.664 0-32 14.336-32 32v960c0 17.696 14.336 31.968 32 31.968h960c17.664 0 32-14.272 32-31.968v-960c0-17.664-14.336-32-32-32zM960 896h-896v-896h896v896zM288 480c-17.664 0-32-14.336-32-32s14.336-32 32-32h448c17.664 0 32 14.336 32 32s-14.336 32-32 32h-448z" />
<glyph unicode="&#xe95f;" glyph-name="money-bag" horiz-adv-x="896" d="M896 255.648c0-212.064-107.168-319.616-318.528-319.616h-258.944c-211.36 0-318.528 107.552-318.528 319.616 0 178.496 211.808 368.704 278.88 424.512-113.984 214.016-83.808 251.36-73.504 263.776 8.608 10.336 20.352 16.064 33.088 16.192 0.128 0 0.288 0 0.416 0 24.736 0 41.76-19.744 59.744-40.64 5.568-6.432 13.952-16.192 20.096-21.6 1.76 2.304 3.648 5.024 5.28 7.296 14.176 20.064 37.952 53.6 92 53.6 47.648 0 69.76-15.584 84.352-25.92 8.256-5.856 9.12-6.048 11.648-6.048 24.448 0 35.040 5.312 49.696 12.608 17.28 8.64 38.752 19.36 78.304 19.36 26.304 0 47.392-14.464 57.856-39.648 23.488-56.64-11.872-165.248-75.328-243.552 72.256-60.864 273.472-245.92 273.472-419.936zM637.888 896.32c-22.336-1.44-32.928-6.752-47.584-14.048-17.28-8.64-38.752-19.36-78.304-19.36-23.424 0-37.984 10.272-48.608 17.76-10.752 7.616-20.064 14.208-47.392 14.208-20.032 0-27.040-8.64-39.744-26.592-10.528-14.88-26.432-37.344-56.256-37.344-20.096 0-36.48 11.552-50.848 25.856 14.272-40.384 40.256-97.504 70.176-153.696h222.24c72.448 78.688 88.448 177.856 76.32 193.216zM566.208 639.168h-236.416c-45.984-37.44-265.792-224.992-265.792-383.52 0-176.832 78.496-255.68 254.528-255.68h258.944c176.032 0 254.528 78.848 254.528 255.68 0 158.528-219.808 346.080-265.792 383.52zM448 351.552c-17.664 0-32 14.336-32 31.968 0 17.6 14.336 31.936 32 31.936h64c17.696 0 32 14.304 32 31.936 0 17.664-14.304 31.968-32 31.968h-32v31.968c0 17.664-14.304 31.968-32 31.968s-32-14.304-32-31.968v-37.856c-37.184-13.216-64-48.352-64-89.952 0-52.896 43.072-95.904 96-95.904 17.664 0 32-14.336 32-31.968 0-17.6-14.336-31.936-32-31.936h-64c-17.696 0-32-14.336-32-31.968 0-17.664 14.304-31.968 32-31.968h32v-31.968c0-17.632 14.304-31.968 32-31.968s32 14.336 32 31.968v37.856c37.152 13.248 64 48.384 64 89.984 0 52.896-43.072 95.904-96 95.904z" />
<glyph unicode="&#xe960;" glyph-name="newspaper" horiz-adv-x="896" d="M800-64h-704c-52.928 0-96 43.072-96 96v640c0 17.696 14.336 32 32 32h96v224c0 17.696 14.336 32 32 32h704c17.664 0 32-14.304 32-32v-896c0-52.928-43.072-96-96-96zM128 640.032h-64v-608.032c0-17.664 14.368-32 32-32s32 14.336 32 32v608.032zM832 896h-640v-864c0-11.264-2.304-21.92-5.888-32h613.888c17.632 0 32 14.336 32 32v864zM736 224c17.664 0 32 14.304 32 32 0 17.664-14.336 32-32 32h-448c-17.664 0-32-14.336-32-32 0-17.696 14.336-32 32-32h448zM736 352c17.664 0 32 14.304 32 32s-14.336 32-32 32h-448c-17.664 0-32-14.304-32-32s14.336-32 32-32h448zM736 480c17.664 0 32 14.304 32 32 0 17.664-14.336 32-32 32h-448c-17.664 0-32-14.336-32-32 0-17.696 14.336-32 32-32h448zM544 640.032c17.664 0 32 14.272 32 31.968s-14.336 32-32 32h-256c-17.664 0-32-14.304-32-32s14.336-31.968 32-31.968h256z" />
<glyph unicode="&#xe961;" glyph-name="outside" horiz-adv-x="1022" d="M958.048-64c35.296 0 63.968 28.736 63.968 64v896c0 35.296-28.672 64-63.968 64h-543.744c-35.264 0-63.968-28.704-63.968-64v-256c0-17.664 14.336-32 32-32 17.632 0 31.968 14.336 31.968 32v256h543.744v-896h-543.744v256c0 17.664-14.336 32-31.968 32-17.664 0-32-14.336-32-32v-256c0-35.264 28.704-64 63.968-64h543.744zM110.336 480l137.312 137.376c12.48 12.48 12.48 32.768 0 45.248-12.512 12.512-32.768 12.512-45.248 0l-189.12-189.216c-7.968-5.824-13.472-14.784-13.472-25.408 0-10.592 5.472-19.52 13.408-25.344l189.184-189.28c6.24-6.24 14.432-9.376 22.624-9.376s16.352 3.136 22.624 9.376c12.48 12.48 12.48 32.768 0 45.248l-137.312 137.376h625.12c17.664 0 32 14.336 32 32s-14.336 32-32 32h-625.12z" />
<glyph unicode="&#xe962;" glyph-name="paper-plane" d="M1020.598 939.909c1.316-3.145 2.215-6.419 2.439-9.853 0.032-0.257 0.128-0.481 0.128-0.738 0.16-3.081-0.128-6.162-0.899-9.243l-223.858-895.687c-2.439-9.757-9.339-17.812-18.615-21.696-3.98-1.701-8.216-2.535-12.42-2.535-5.584 0-11.169 1.476-16.111 4.365l-219.621 128.12-121.445-182.199c-6.066-9.083-16.143-14.25-26.638-14.25-3.081 0-6.194 0.449-9.243 1.348-13.512 4.108-21.279 16.464-21.279 30.554v279.028c-0.257 0.834-0.064 1.765-0.257 2.632-0.514 2.632-0.834 5.135-0.706 7.799 0.064 1.701 0.353 3.306 0.706 4.975 0.481 2.407 1.22 4.654 2.279 6.932 0.417 0.899 0.385 1.861 0.899 2.728 0.578 0.995 1.412 1.701 2.182 2.471 0.674 0.931 0.931 2.022 1.701 2.888l493.578 545.603-752.611-376.402 180.338-98.337c15.502-8.473 21.214-27.89 12.741-43.391-8.441-15.534-27.826-21.246-43.391-12.774l-234.064 127.671c-10.431 5.713-16.849 16.753-16.657 28.66 0.225 11.875 7.029 22.691 17.684 28.050l959.491 479.809c0.16 0.096 0.321 0.096 0.481 0.16 0.578 0.289 1.22 0.353 1.797 0.61 2.921 1.187 5.905 1.926 8.954 2.215 1.091 0.096 2.118 0.096 3.209 0.096 2.888 0 5.713-0.417 8.505-1.22 0.834-0.225 1.669-0.321 2.503-0.61 3.145-1.187 6.13-2.728 8.858-4.91 0.289-0.257 0.449-0.578 0.738-0.834 0.225-0.16 0.514-0.225 0.706-0.417 0.514-0.449 0.706-1.091 1.155-1.573 2.118-2.15 3.851-4.493 5.263-7.093 0.546-0.995 1.059-1.926 1.476-2.953zM746.673 81.259l182.552 730.305-495.471-547.721 312.919-182.584zM415.557 73.845l60.722 91.084-60.722 35.432v-126.516z" />
<glyph unicode="&#xe963;" glyph-name="photo" d="M954.72 32h-890.464c-35.072 0-63.584 28.704-63.584 64v704c0 35.296 28.512 64 63.584 64h890.464c35.072 0 63.584-28.704 63.584-64v-640c0 0 0 0 0 0v-64c0-35.296-28.512-64-63.584-64zM958.016 800h-896v-442.72l235.52 210.624c12.576 11.264 31.712 10.72 43.616-1.28l234.304-235.744 136.768 110.112c12.64 10.24 30.912 9.184 42.368-2.368l203.424-204.704v566.080zM958.016 143.424l-228.288 229.696-136.768-110.112c-12.64-10.176-30.944-9.152-42.368 2.368l-233.216 234.656-255.36-228.416v-175.616h896v47.424zM668.48 607.936c0-35.264 28.576-63.936 63.68-63.936 35.040 0 63.552 28.672 63.552 63.936 0 35.328-28.512 64.064-63.552 64.064-35.104 0-63.68-28.736-63.68-64.064zM732.064 607.968c0.032 0.032 0.064 0.032 0.096 0.032v-32l-0.096 31.968z" />
<glyph unicode="&#xe964;" glyph-name="play" horiz-adv-x="896" d="M54.112-64c-31.36 0-54.112 25.312-54.112 60.224v904.16c0 39.136 26.688 59.616 53.088 59.616 11.36 0 22.816-3.424 34.016-10.144l777.376-466.976c20.16-12.16 31.52-30.624 31.232-50.752-0.256-20.128-12.16-38.272-32.576-49.824l-776.288-437.152c-10.848-6.080-21.856-9.152-32.736-9.152zM64.192 888.928l-0.224-882.944 758.816 427.040-758.592 455.904z" />
<glyph unicode="&#xe965;" glyph-name="plus" d="M992 416h-448v-448c0-17.664-14.336-32-32-32s-32 14.336-32 32v448h-448c-17.664 0-32 14.336-32 32s14.336 32 32 32h448v448c0 17.664 14.336 32 32 32s32-14.336 32-32v-448h448c17.664 0 32-14.336 32-32s-14.336-32-32-32z" />
<glyph unicode="&#xe966;" glyph-name="plus-circle" d="M874.016 85.952c-96.704-96.704-225.28-149.952-362.048-149.952s-265.344 53.248-362.016 149.952c-96.704 96.704-149.952 225.28-149.952 362.048s53.248 265.344 149.952 362.016c96.672 96.736 225.248 149.984 362.016 149.984s265.344-53.248 362.048-149.984c96.704-96.672 149.984-225.248 149.984-362.016s-53.28-265.344-149.984-362.048zM828.768 764.768c-84.608 84.64-197.12 131.232-316.8 131.232-119.648 0-232.16-46.592-316.768-131.232-84.608-84.608-131.2-197.088-131.2-316.768s46.592-232.16 131.2-316.8c84.608-84.608 197.12-131.2 316.768-131.2 119.68 0 232.192 46.592 316.8 131.2 84.608 84.64 131.232 197.12 131.232 316.8s-46.624 232.16-131.232 316.768zM736 416c17.664 0 32 14.304 32 31.968s-14.336 32-32 32h-192v192c0 17.696-14.336 32-32 32s-32-14.304-32-32v-192h-192c-17.664 0-32-14.336-32-32s14.336-31.968 32-31.968h192v-192c0-17.664 14.336-32 32-32s32 14.336 32 32v192h192z" />
<glyph unicode="&#xe967;" glyph-name="plus-square" d="M992-64h-960c-17.664 0-32 14.336-32 32v960c0 17.696 14.336 31.968 32 31.968h960c17.664 0 32-14.272 32-31.968v-960c0-17.664-14.336-32-32-32zM960 896h-896v-896h896v896zM288 480c-17.664 0-32-14.336-32-32s14.336-32 32-32h192v-192c0-17.664 14.336-32 32-32s32 14.336 32 32v192h192c17.664 0 32 14.336 32 32s-14.336 32-32 32h-192v192c0 17.664-14.336 32-32 32s-32-14.336-32-32v-192h-192z" />
<glyph unicode="&#xe968;" glyph-name="settings" d="M996.128 352.288l-106.368-13.92c-7.936-27.52-18.944-54.080-32.864-79.36l65.088-85.344c9.728-12.704 8.544-30.624-2.72-41.984l-88.256-88.832c-11.136-11.232-28.864-12.64-41.664-3.2l-87.232 64.128c-25.472-14.080-52.32-25.248-80.192-33.376l-14.208-106.624c-2.112-15.904-15.68-27.776-31.712-27.776h-128c-16.096 0-29.664 11.968-31.744 27.872l-13.696 106.24c-27.456 7.872-53.952 18.784-79.168 32.576l-85.792-64.768c-12.736-9.6-30.528-8.352-41.824 2.816l-88.928 88.224c-11.2 11.136-12.608 28.8-3.296 41.6l63.68 87.168c-14.432 25.984-25.728 53.248-33.824 81.44l-105.376 13.088c-16 1.984-28.032 15.584-28.032 31.744v128c0 16.128 11.968 29.728 27.968 31.712l106.112 13.504c8.224 28.128 19.584 55.136 33.92 80.768l-65.728 84.032c-9.952 12.736-8.864 30.848 2.496 42.272l88.288 88.864c11.296 11.36 29.28 12.64 42.080 2.912l86.208-65.568c25.696 14.208 52.768 25.44 80.864 33.568l14.048 108.064c2.080 15.936 15.68 27.872 31.744 27.872h128c16.16 0 29.792-12.064 31.776-28.096l13.152-107.744c27.2-7.84 53.472-18.656 78.56-32.288l86.88 66.144c12.768 9.664 30.624 8.512 41.952-2.752l88.832-88.288c11.328-11.264 12.64-29.184 3.008-41.952l-65.056-86.4c14.4-25.664 25.824-52.736 34.112-80.896l106.944-14.016c15.904-2.080 27.84-15.616 27.84-31.712v-128c0-16.064-11.936-29.664-27.872-31.712zM960 483.936l-100.448 13.152c-13.216 1.696-24 11.488-27.008 24.48-8.384 36.16-22.816 70.432-42.944 101.824-7.2 11.264-6.656 25.824 1.408 36.512l61.248 81.344-49.28 48.96-81.664-62.176c-10.592-8.032-24.992-8.736-36.224-1.76-31.264 19.328-65.024 33.152-100.32 41.152-13.184 2.944-23.072 13.888-24.736 27.296l-12.352 101.28h-71.584l-13.216-101.632c-1.728-13.312-11.552-24.096-24.64-27.072-36.16-8.224-70.496-22.496-102.080-42.4-11.296-7.104-25.792-6.464-36.448 1.632l-81.024 61.6-48.64-48.896 61.888-79.136c8.352-10.72 9.056-25.504 1.76-36.928-20.128-31.52-34.56-65.888-42.976-102.176-3.008-13.056-13.824-22.848-27.136-24.512l-99.584-12.672v-71.552l98.944-12.288c13.408-1.664 24.32-11.584 27.264-24.768 8.064-36 22.336-70.4 42.368-102.272 6.944-11.104 6.464-25.344-1.28-35.936l-59.84-81.952 49.728-49.312 80.672 60.864c10.56 7.968 24.928 8.608 36.128 1.632 31.264-19.392 65.088-33.312 100.576-41.312 13.088-2.976 22.944-13.792 24.672-27.136l12.896-99.776h71.84l13.344 100.192c1.76 13.216 11.552 24 24.576 26.976 35.808 8.224 69.856 22.368 101.152 42.016 11.104 7.008 25.408 6.496 36-1.344l82.016-60.288 49.152 49.472-61.216 80.224c-8.096 10.592-8.736 25.088-1.664 36.384 19.552 31.296 33.6 65.216 41.664 100.736 2.976 13.088 13.76 22.944 27.040 24.64l99.968 13.088v71.84zM512 255.424c-105.888 0-192 86.112-192 192 0 105.856 86.112 192 192 192s192-86.144 192-192c0-105.888-86.112-192-192-192zM512 575.424c-70.592 0-128-57.44-128-128s57.408-128 128-128c70.592 0 128 57.44 128 128s-57.408 128-128 128z" />
<glyph unicode="&#xe969;" glyph-name="share-1" d="M1015.488 682.336c12.48 12.48 12.48 32.672 0 45.12l-191.456 191.424c-12.448 12.448-32.64 12.448-45.12 0-12.448-12.448-12.448-32.64 0-45.12l136.992-136.96h-246.048c-228.736 0-414.816-186.048-414.816-414.72 0-17.632 14.272-31.904 31.904-31.904s31.904 14.272 31.904 31.904c0 193.504 157.472 350.912 351.008 350.912h246.048l-136.992-136.928c-12.448-12.48-12.448-32.672 0-45.12 6.24-6.24 14.4-9.344 22.56-9.344s16.32 3.104 22.56 9.344l191.456 191.392zM286.944 672.992c17.632 0 31.904 14.304 31.904 31.904 0 17.632-14.272 31.904-31.904 31.904h-223.36c-35.168 0-63.808-28.608-63.808-63.808v-640.032c0-35.2 28.64-63.808 63.808-63.808h831.616c35.168 0 63.808 28.608 63.808 63.808v382.816c0 17.632-14.272 31.904-31.904 31.904s-31.904-14.272-31.904-31.904v-382.816h-831.616v640.032h223.36z" />
<glyph unicode="&#xe96a;" glyph-name="share-2" d="M1009.6 614.176l-319.968-212.32c-5.344-3.52-11.52-5.344-17.728-5.344-5.184 0-10.368 1.28-15.104 3.808-10.4 5.568-16.864 16.384-16.864 28.128v83.616c-120.128-4.608-208.992-35.040-263.616-91.36-57.92-59.68-56.48-127.168-56.384-130.016 0.544-17.472-13.024-32.224-30.528-33.024-0.48-0.032-0.992-0.032-1.472-0.032-16.832 0-30.912 12.992-31.904 29.92-8.864 149.92 27.488 268.704 108 353.12 92.768 97.216 217.632 120.416 275.904 126.016v97.632c0 11.904 6.624 22.816 17.216 28.352 10.592 5.472 23.36 4.64 33.12-2.176l319.968-223.552c8.64-6.048 13.76-16.032 13.632-26.56-0.128-10.56-5.472-20.352-14.272-26.208zM703.904 802.976v-66.4c0-0.064-0.032-0.096-0.032-0.16s0.032-0.096 0.032-0.16c0-2.592-0.928-4.896-1.536-7.296-0.416-1.632-0.384-3.392-1.024-4.896-1.056-2.496-2.848-4.512-4.448-6.624-0.896-1.12-1.408-2.496-2.4-3.488-1.984-1.984-4.512-3.296-6.976-4.672-1.12-0.64-1.984-1.632-3.2-2.144-3.808-1.6-8-2.496-12.416-2.496-0.064 0-0.256 0.032-0.288 0-3.552 0-159.584-1.024-261.664-108.48-32.096-33.792-55.808-74.72-70.976-122.496 72.32 68.512 184.256 103.232 332.928 103.232 17.696 0 32-14.304 32-31.936v-56.928l231.2 153.408-231.2 161.536zM288 705.984c17.664 0 33.216 12.96 33.216 30.592s-14.336 31.936-32 31.936h-225.216c-35.296 0-64-28.64-64-63.872v-638.752c0-35.232 28.704-63.84 64-63.84h831.904c35.296 0 63.968 28.608 63.968 63.84v351.328c0 17.632-14.304 31.936-31.968 31.936-17.696 0-32-14.304-32-31.936v-351.328h-831.904v640.096h224z" />
<glyph unicode="&#xe96b;" glyph-name="share-3" d="M864 640c-50.944 0-95.904 24.384-125.216 61.6l-424.832-212.416c3.552-13.216 6.048-26.848 6.048-41.184 0-13.088-2.016-25.6-4.992-37.792l423.84-215.744c29.312 37.184 74.24 61.536 125.152 61.536 88.224 0 160-71.776 160-160s-71.776-160.032-160-160.032c-88.224 0-160 71.808-160 160.032 0 14.368 2.528 28.032 6.080 41.28l-422.56 215.136c-29.216-38.88-75.264-64.416-127.52-64.416-88.224 0-160 71.776-160 160s71.776 160 160 160c50.944 0 95.904-24.384 125.216-61.6l424.832 212.416c-3.552 13.216-6.048 26.848-6.048 41.184 0 88.224 71.776 160 160 160s160-71.776 160-160c0-88.224-71.776-160-160-160zM864 0c52.928 0 96 43.040 96 96 0 52.928-43.072 96-96 96s-96-43.072-96-96c0-52.96 43.072-96 96-96zM160 544c-52.928 0-96-43.072-96-96s43.072-96 96-96c52.928 0 96 43.072 96 96s-43.072 96-96 96zM864 896c-52.928 0-96-43.072-96-96s43.072-96 96-96c52.928 0 96 43.072 96 96s-43.072 96-96 96z" />
<glyph unicode="&#xe96c;" glyph-name="shopping-bag" horiz-adv-x="832" d="M768-64h-704c-35.296 0-64 28.704-64 64v704c0 35.296 28.704 64 64 64h192v96c0 52.928 43.072 96 96 96h128c52.928 0 96-43.072 96-96v-96h192c35.264 0 64-28.704 64-64v-704c0-35.296-28.736-64-64-64zM512 864c0 17.664-14.336 32-32 32h-128c-17.664 0-32-14.336-32-32v-96h192v96zM576 704v-32c0-17.664-14.304-32-32-32s-32 14.336-32 32v32h-192v-32c0-17.664-14.304-32-32-32s-32 14.336-32 32v32h-192v-704h703.904l0.096 704h-192z" />
<glyph unicode="&#xe96d;" glyph-name="shuffle" d="M1021.568 162.368c0 0 0 0.032 0 0.032s0 0 0 0c0 4.16-0.864 8.32-2.464 12.224-1.632 3.904-3.936 7.424-6.88 10.336 0 0 0 0 0 0.032l-127.488 127.552c-12.448 12.448-32.64 12.448-45.088 0s-12.448-32.64 0-45.088l73.088-73.152h-127.328c-22.496 0-43.456 10.080-56.768 26.688l-93.376 126.528c-10.464 14.144-30.4 17.184-44.576 6.688-14.176-10.464-17.184-30.4-6.72-44.608l94.144-127.488c26.24-32.8 65.344-51.584 107.296-51.584h127.36l-73.056-73.152c-12.448-12.448-12.448-32.64 0-45.088 6.24-6.24 14.368-9.344 22.528-9.344s16.32 3.104 22.56 9.344l127.36 127.52c2.976 2.976 5.312 6.496 6.944 10.432 1.6 3.872 2.432 8 2.464 12.128zM1012.224 713.984c2.944 2.944 5.28 6.464 6.88 10.368 3.232 7.808 3.232 16.576 0 24.384-1.536 3.68-3.776 6.944-6.496 9.792-0.16 0.16-0.224 0.416-0.384 0.576l-127.488 127.584c-12.448 12.448-32.64 12.448-45.088 0-12.448-12.48-12.448-32.64 0-45.12l73.088-73.12h-124.16c-43.936 0-85.536-21.28-111.296-56.864l-145.6-201.184-156.032 206.912c-26.208 32.48-65.184 51.136-106.88 51.136h-236.448c-17.632 0-31.904-14.304-31.904-31.904s14.272-31.904 31.904-31.904h236.448c22.336 0 43.232-9.984 56.672-26.56l165.76-219.904c0.448-0.608 1.184-0.832 1.664-1.376l-167.904-232c-13.792-19.072-36.096-30.496-59.648-30.496h-232.992c-17.632 0-31.904-14.272-31.904-31.904 0-17.6 14.272-31.872 31.904-31.872h232.992c43.904 0 85.536 21.248 111.264 56.832l352.32 486.816c13.824 19.104 36.096 30.464 59.68 30.464h124.16l-73.024-73.12c-12.448-12.48-12.448-32.672 0-45.12 6.24-6.208 14.368-9.312 22.528-9.312s16.32 3.104 22.56 9.312l127.424 127.584c0 0 0 0 0 0z" />
<glyph unicode="&#xe96e;" glyph-name="star" horiz-adv-x="1020" d="M827.658-63.775c-9.938 0-20.165 3.57-30.424 10.613l-278.706 191.518c-2.219 1.544-16.113 1.544-18.364 0l-278.673-191.485c-23.059-15.855-48.209-12.864-61.266 4.567-5.95 7.912-11.739 21.934-5.564 43.771l84.165 298.71c1.769 6.368-1.544 19.489-6.143 24.185l-216.796 221.524c-21.387 21.805-16.82 42.935-13.861 51.007 2.959 8.040 13.025 27.112 43.321 29.91l286.842 26.919c6.432 0.579 17.045 8.362 19.618 14.312l115.2 266.935c12.414 28.687 33.769 31.775 42.356 31.775s29.942-3.087 42.324-31.743l115.296-266.967c2.573-5.982 13.186-13.701 19.586-14.312l286.842-26.886c30.36-2.862 40.426-21.934 43.385-30.006 2.927-8.072 7.429-29.17-13.893-50.975l-216.828-221.427c-4.631-4.76-7.944-17.817-6.111-24.153l84.068-298.903c6.207-21.741 0.418-35.763-5.532-43.642-7.236-9.68-18.492-15.244-30.842-15.244zM509.363 204.478c16.659 0 32.675-4.728 45.154-13.282l233.166-160.257-69.049 245.58c-8.072 28.269 1.415 65.512 22.030 86.545l192.836 196.985-252.848 23.703c-29.427 2.766-60.462 25.343-72.169 52.583l-99.087 229.532-99.12-229.564c-11.803-27.24-42.806-49.817-72.169-52.551l-252.784-23.735 192.772-197.017c20.519-20.905 30.038-58.115 22.094-86.48l-69.178-245.516 233.198 160.161c12.478 8.587 28.494 13.315 45.154 13.315z" />
<glyph unicode="&#xe96f;" glyph-name="star1" horiz-adv-x="1021" d="M827.572-64c-9.66 0-19.321 3.22-28.981 9.66l-280.151 193.208c-3.22 0-16.101 0-19.321 0l-280.151-193.208c-22.541-16.101-48.302-12.881-61.182 3.22-6.44 6.44-12.881 22.541-6.44 45.082l83.723 299.472c3.22 6.44 0 19.321-6.44 25.761l-215.748 222.189c-22.541 22.541-16.101 41.862-12.881 51.522s12.881 25.761 41.862 28.981l286.591 25.761c6.44 0 16.101 9.66 19.321 12.881l115.925 267.27c12.881 28.981 32.201 32.201 41.862 32.201s28.981-3.22 41.862-32.201l115.925-267.27c3.22-6.44 12.881-12.881 19.321-12.881l286.591-25.761c28.981-3.22 41.862-22.541 41.862-28.981 3.22-9.66 6.44-28.981-12.881-51.522l-215.748-222.189c-3.22-3.22-6.44-19.321-6.44-25.761l83.723-299.472c6.44-22.541 0-35.421-6.44-45.082 0-6.44-12.881-12.881-25.761-12.881z" />
<glyph unicode="&#xe970;" glyph-name="support" d="M1003.872 66.272l-320-128c-3.776-1.472-7.808-2.272-11.872-2.272h-192c-17.696 0-32 14.336-32 32v32c0 17.664 14.304 32 32 32h64c17.696 0 32-14.336 32-32h89.856l170.976 68.416c-39.648 11.808-68.832 48.16-68.832 91.584v192c0 52.928 43.072 96 96 96h64c11.264 0 21.952-2.304 32-5.888v5.888c0 247.040-200.96 448-448 448s-448-200.96-448-448v-5.888c10.048 3.584 20.736 5.888 32 5.888h64c52.928 0 96-43.072 96-96v-192c0-52.928-43.072-96-96-96h-64c-52.928 0-96 43.072-96 96v288c0 282.304 229.696 512 512 512s512-229.696 512-512v-352c0-13.088-7.968-24.864-20.128-29.728zM64 160c0-17.632 14.336-32 32-32h64c17.664 0 32 14.368 32 32v192c0 17.632-14.336 32-32 32h-64c-17.664 0-32-14.368-32-32v-192zM928 384h-64c-17.664 0-32-14.368-32-32v-192c0-17.632 14.336-32 32-32h64c17.664 0 32 14.368 32 32v192c0 17.632-14.336 32-32 32z" />
<glyph unicode="&#xe971;" glyph-name="trash" horiz-adv-x="832" d="M800 736h-35.616l-88.8-740.032c-4.032-33.632-33.696-59.968-67.584-59.968h-384c-33.888 0-63.552 26.336-67.584 59.968l-88.8 740.032h-35.616c-17.664 0-32 14.336-32 32s14.336 32 32 32h224v64c0 52.928 43.072 96 96 96h128c52.928 0 96-43.072 96-96v-64h224c17.664 0 32-14.336 32-32s-14.336-32-32-32zM512 864c0 17.664-14.368 32-32 32h-128c-17.632 0-32-14.336-32-32v-64h192v64zM132.064 736l87.904-732.416c0.16-1.376 2.656-3.584 4.032-3.584h384c1.376 0 3.872 2.208 4.032 3.584l87.904 732.416h-567.872z" />
<glyph unicode="&#xe972;" glyph-name="trash-recycle" horiz-adv-x="896" d="M864 736h-35.616l-88.8-740.032c-4.032-33.632-33.696-59.968-67.584-59.968h-448c-33.888 0-63.552 26.336-67.584 59.968l-88.8 740.032h-35.616c-17.664 0-32 14.336-32 32s14.336 32 32 32h256v64c0 52.928 43.072 96 96 96h128c52.928 0 96-43.072 96-96v-64h256c17.664 0 32-14.336 32-32s-14.336-32-32-32zM544 864c0 17.664-14.368 32-32 32h-128c-17.632 0-32-14.336-32-32v-64h192v64zM132.064 736l87.904-732.416c0.16-1.376 2.656-3.584 4.032-3.584h448c1.376 0 3.872 2.208 4.032 3.584l87.904 732.416h-631.872zM460.032 193.216c100.192 6.336 179.968 89.056 179.968 190.784 0 12.992-1.28 25.568-3.904 38.4-3.52 17.344-20.512 28.544-37.76 24.96-17.312-3.552-28.48-20.448-24.928-37.76 1.76-8.576 2.592-16.96 2.592-25.6 0-65.536-49.664-119.072-113.248-126.496l7.872 7.84c12.512 12.512 12.512 32.768 0 45.28s-32.736 12.512-45.248 0l-64-64c-12.512-12.48-12.512-32.768 0-45.248l64-64c6.24-6.24 14.432-9.376 22.624-9.376s16.384 3.136 22.624 9.376c12.512 12.48 12.512 32.768 0 45.248l-10.592 10.592zM470.624 457.376l64 64c12.512 12.48 12.512 32.768 0 45.248l-64 64c-12.512 12.48-32.736 12.48-45.248 0s-12.512-32.768 0-45.248l10.624-10.592c-100.192-6.336-180-89.024-180-190.784 0-13.024 1.28-25.568 3.904-38.432 3.072-15.104 16.416-25.6 31.328-25.6 2.112 0 4.256 0.224 6.432 0.672 17.312 3.552 28.48 20.448 24.928 37.76-1.76 8.576-2.592 16.96-2.592 25.6 0 65.536 49.696 119.104 113.28 126.528l-7.904-7.904c-12.512-12.512-12.512-32.768 0-45.248 6.24-6.272 14.432-9.376 22.624-9.376s16.384 3.104 22.624 9.376z" />
<glyph unicode="&#xe973;" glyph-name="unlocked" horiz-adv-x="833" d="M736.714-64h-640.621c-52.979 0-96.093 43.050-96.093 96.029v480.145c0 52.947 43.114 96.029 96.093 96.029h82.608l-3.043 8.36c-48.303 132.673 20.372 279.919 153.172 328.254 132.737 48.239 280.143-20.404 328.446-153.044l13.998-46.285c5.125-16.912-4.484-34.786-21.397-39.879-17.169-5.125-34.85 4.484-39.911 21.397l-13.453 44.555c-35.683 97.791-146.19 149.265-245.806 113.102-99.552-36.259-151.122-146.67-114.863-246.223l11.051-30.237h489.819c52.979 0 96.093-43.082 96.093-96.029v-480.145c0-52.979-43.114-96.029-96.093-96.029zM768.745 512.174c0 17.649-14.35 31.999-32.031 31.999h-640.621c-17.681 0-32.031-14.35-32.031-31.999v-480.145c0-17.649 14.35-32.031 32.031-32.031h640.621c17.681 0 32.031 14.382 32.031 32.031v480.145zM448.434 296.99c19.058 11.115 32.031 31.551 32.031 55.125 0 35.298-28.732 64.030-64.062 64.030-35.298 0-64.062-28.732-64.062-64.030 0-23.575 12.973-44.011 32.031-55.093v-104.934c0-17.713 14.318-32.031 32.031-32.031s32.031 14.318 32.031 32.031v104.902z" />
</font>
</defs>
</svg>
