<?xml version="1.0" encoding="iso-8859-1"?>
<!-- Generator: Adobe Illustrator 22.0.0, SVG Export Plug-In . SVG Version: 6.00 Build 0)  -->
<svg version="1.1" id="Layer_1" xmlns="http://www.w3.org/2000/svg" xmlns:xlink="http://www.w3.org/1999/xlink" x="0px" y="0px"
	 viewBox="0 0 392.879 267.84" style="enable-background:new 0 0 392.879 267.84;" xml:space="preserve">
<g>
	<path d="M321.199,195.84c-9.597,0-18.719,3.762-25.597,10.558c-6.883,6.883-10.723,15.84-10.723,25.442
		c0,9.601,3.762,18.558,10.723,25.441c6.957,6.797,16,10.559,25.597,10.559c19.68,0,35.68-16.16,35.68-36
		C356.879,212,340.879,195.84,321.199,195.84L321.199,195.84z M321.199,251.84c-11.039,0-20.32-9.121-20.32-20
		c0-10.879,9.281-20,20.32-20c10.879,0,19.68,8.961,19.68,20C340.879,242.879,332.078,251.84,321.199,251.84L321.199,251.84z
		 M321.199,251.84"/>
	<path d="M330.48,75.922c-1.441-1.363-3.359-2.082-5.359-2.082h-41.043c-4.398,0-8,3.601-8,8v65.601c0,4.399,3.602,8,8,8h65.121
		c4.403,0,8-3.601,8-8V103.52c0-2.239-0.961-4.399-2.64-5.918L330.48,75.922z M341.199,139.441h-49.121V89.762H322l19.199,17.277
		V139.441z M341.199,139.441"/>
	<path d="M125.84,195.84c-9.602,0-18.719,3.762-25.602,10.558c-6.879,6.883-10.718,15.84-10.718,25.442
		c0,9.601,3.761,18.558,10.718,25.441c6.961,6.797,16,10.559,25.602,10.559c19.68,0,35.68-16.16,35.68-36
		C161.52,212,145.52,195.84,125.84,195.84L125.84,195.84z M125.84,251.84c-11.039,0-20.32-9.121-20.32-20
		c0-10.879,9.281-20,20.32-20c10.879,0,19.68,8.961,19.68,20C145.52,242.879,136.719,251.84,125.84,251.84L125.84,251.84z
		 M125.84,251.84"/>
	<path d="M72.48,205.68H56.398v-21.282c0-4.398-3.597-8-8-8c-4.398,0-8,3.602-8,8v29.282c0,4.398,3.602,8,8,8H72.48
		c4.399,0,8-3.602,8-8C80.48,209.281,76.879,205.68,72.48,205.68L72.48,205.68z M72.48,205.68"/>
	<path d="M113.039,162.078c0-4.398-3.598-8-8-8H8c-4.398,0-8,3.602-8,8c0,4.402,3.602,8,8,8h97.039
		C109.441,170.078,113.039,166.559,113.039,162.078L113.039,162.078z M113.039,162.078"/>
	<path d="M24.238,133.199l97.043,0.563c4.399,0,8-3.524,8.078-7.922c0.082-4.481-3.519-8.078-7.918-8.078l-97.043-0.563H24.32
		c-4.398,0-8,3.52-8,7.922C16.238,129.602,19.84,133.199,24.238,133.199L24.238,133.199z M24.238,133.199"/>
	<path d="M40.559,96.879h97.043c4.398,0,8-3.598,8-8c0-4.399-3.602-8-8-8H40.559c-4.399,0-8,3.601-8,8
		C32.559,93.281,36.16,96.879,40.559,96.879L40.559,96.879z M40.559,96.879"/>
	<path d="M389.922,86.078l-57.281-47.437c-1.442-1.2-3.2-1.84-5.121-1.84h-67.36V8c0-4.398-3.601-8-8-8H48.398c-4.398,0-8,3.602-8,8
		v58.559c0,4.402,3.602,8,8,8c4.403,0,8-3.598,8-8V16h187.84v189.68h-65.597c-4.403,0-8,3.601-8,8c0,4.398,3.597,8,8,8h97.679
		c4.399,0,8-3.602,8-8c0-4.399-3.601-8-8-8h-16.082V52.801h64.481L376.879,96l-0.559,109.52H368c-4.398,0-8,3.601-8,8
		c0,4.402,3.602,8,8,8h16.238c4.403,0,8-3.52,8-7.918l0.641-121.282C392.801,89.922,391.762,87.602,389.922,86.078L389.922,86.078z
		 M389.922,86.078"/>
</g>
</svg>
