<!-- Generated by IcoMoon.io -->
<svg version="1.1" xmlns="http://www.w3.org/2000/svg" width="32" height="32" viewBox="0 0 32 32">
<title>instagram</title>
<path d="M23.356 32h-14.713c-4.763 0-8.644-3.881-8.644-8.644v-14.713c0-4.763 3.881-8.644 8.644-8.644h14.706c4.769 0 8.65 3.881 8.65 8.644v14.706c0 4.769-3.881 8.65-8.644 8.65zM8.644 2.587c-3.344 0-6.063 2.719-6.063 6.063v14.706c0 3.344 2.719 6.063 6.063 6.063h14.706c3.344 0 6.063-2.719 6.063-6.063v-14.713c0-3.344-2.719-6.063-6.063-6.063l-14.706 0.006z"></path>
<path d="M16.050 23.113c-1.525 0-3.012-0.488-4.262-1.413-1.537-1.144-2.544-2.813-2.825-4.713-0.281-1.894 0.194-3.787 1.338-5.325s2.813-2.544 4.713-2.825c0.7-0.106 1.406-0.106 2.106 0 1.531 0.225 2.925 0.925 4.019 2.025 1.094 1.094 1.794 2.487 2.025 4.019v0c0.281 1.894-0.194 3.788-1.337 5.325s-2.813 2.544-4.712 2.825c-0.356 0.056-0.712 0.081-1.063 0.081zM16.063 11.344c-0.225 0-0.45 0.019-0.675 0.050-1.213 0.181-2.281 0.819-3.012 1.806s-1.031 2.194-0.856 3.406c0.181 1.212 0.819 2.281 1.806 3.012s2.194 1.031 3.406 0.856c2.506-0.369 4.238-2.712 3.869-5.213-0.3-2.013-1.85-3.569-3.869-3.869-0.219-0.031-0.444-0.050-0.669-0.050z"></path>
<path d="M24.087 9.206c-0.337 0-0.675-0.137-0.913-0.381-0.244-0.244-0.381-0.575-0.381-0.912s0.137-0.675 0.381-0.912 0.575-0.381 0.913-0.381 0.675 0.138 0.913 0.381c0.244 0.244 0.381 0.575 0.381 0.912s-0.137 0.675-0.381 0.912-0.569 0.381-0.913 0.381z"></path>
</svg>
