<!-- Generated by IcoMoon.io -->
<svg version="1.1" xmlns="http://www.w3.org/2000/svg" width="784" height="512" viewBox="0 0 784 512">
<title></title>
<g id="icomoon-ignore">
</g>
<path fill="#000" d="M221.44 132.528h67.84l-100.832 247.552-67.776 0.048-52.144-197.264c37.088 15.232 70.064 48.352 83.504 84.4l6.72 34.368zM275.152 380.336l40.048-248.016h64.016l-40.048 248.016h-64.032zM508.368 231.904c36.96 17.696 54 39.104 53.792 67.376-0.512 51.472-44.24 84.72-111.52 84.72-28.736-0.32-56.416-6.304-71.344-13.216l8.96-55.504 8.24 3.936c21.056 9.264 34.672 13.024 60.304 13.024 18.416 0 38.16-7.616 38.336-24.224 0.112-10.864-8.272-18.64-33.232-30.784-24.288-11.84-56.48-31.728-56.080-67.376 0.384-48.192 44.944-81.856 108.24-81.856 24.8 0 44.72 5.424 57.376 10.416l-8.672 53.76-5.744-2.848c-11.84-5.024-26.992-9.872-47.92-9.52-25.088 0-36.688 11.024-36.688 21.328-0.16 11.648 13.568 19.264 35.936 30.768zM735.68 132.56l51.824 247.84h-59.424s-5.888-28.512-7.808-37.152c-9.328 0-74.672-0.128-82-0.128-2.496 6.72-13.456 37.296-13.456 37.296h-67.28l95.104-227.28c6.704-16.176 18.208-20.56 33.552-20.56h49.488zM656.704 292.384c12.496 0 43.168 0 53.152 0-2.544-12.4-14.832-71.584-14.832-71.584l-4.32-21.392c-3.232 9.296-8.864 24.32-8.496 23.664 0 0-20.192 55.056-25.504 69.312zM152.064 267.232c-26.368-73.168-84.544-111.856-155.568-129.744l0.848-5.152h103.248c13.92 0.544 25.168 5.216 29.040 20.928z"></path>
</svg>
