<?xml version="1.0" encoding="iso-8859-1"?>
<!-- Generator: Adobe Illustrator 22.0.0, SVG Export Plug-In . SVG Version: 6.00 Build 0)  -->
<svg version="1.1" id="Layer_1" xmlns="http://www.w3.org/2000/svg" xmlns:xlink="http://www.w3.org/1999/xlink" x="0px" y="0px"
	 viewBox="0 0 97.179 88.299" style="enable-background:new 0 0 97.179 88.299;" xml:space="preserve">
<path d="M55.947,86.014C36.365,75.944,27.589,60.352,23.676,49.043c-4.229-12.209-3.837-22.111-3.818-22.527l0.186-4.046
	l3.932-0.979C35.191,18.7,35.32,8.38,35.32,7.942V3.628l4.203-0.982C40.694,2.375,51.196,0,58.435,0
	c7.267,0,17.739,2.375,18.91,2.646l4.2,0.982v4.314c0.01,0.457,0.349,10.812,11.345,13.547l3.935,0.979l0.183,4.046
	c0.046,1.045,0.328,10.568-3.813,22.527c-3.918,11.311-12.698,26.906-32.276,36.972l-2.486,1.272L55.947,86.014z M58.435,4.873
	c-6.363,0-15.759,2.058-17.578,2.47l-0.64,0.145l-0.022,0.655c-0.08,2.393-1.174,14.506-14.835,18.026l-0.623,0.161l-0.015,0.643
	c-0.038,1.592-0.043,10.061,3.563,20.473c3.616,10.437,11.714,24.834,29.76,34.158l0.391,0.201l0.391-0.201
	C76.871,72.28,84.97,57.883,88.586,47.446c3.602-10.404,3.596-18.88,3.559-20.473l-0.016-0.643l-0.623-0.161
	C77.934,22.673,76.771,10.536,76.675,8.139l-0.025-0.653l-0.638-0.143C74.176,6.93,64.701,4.873,58.435,4.873z"/>
<rect style="fill:none;" width="97.179" height="88.299"/>
<path d="M56.969,62.235v-4.298L56.157,57.9c-3.09-0.142-6.104-0.81-8.969-1.986v-5.776c1.487,0.674,3.08,1.26,4.751,1.746
	c2.164,0.632,4.107,0.952,5.776,0.952c1.465,0,2.537-0.188,3.278-0.572c0.888-0.462,1.377-1.293,1.377-2.341
	c0-0.77-0.341-1.448-0.984-1.962c-0.512-0.411-1.318-0.857-2.396-1.323c-1.094-0.478-2.511-1.029-4.211-1.64
	c-1.864-0.691-3.39-1.476-4.526-2.33c-1.093-0.82-1.892-1.737-2.375-2.728c-0.489-1.003-0.737-2.286-0.737-3.811
	c0-2.314,0.708-4.06,2.167-5.336c1.495-1.314,3.815-2.142,6.898-2.462l0.763-0.079V25.16h3.096v3.083l0.804,0.044
	c2.696,0.147,5.46,0.78,8.229,1.883l-2.1,5.02c-3.017-1.264-5.799-1.904-8.282-1.904c-1.403,0-2.399,0.186-3.044,0.568
	c-0.769,0.469-1.17,1.182-1.17,2.067c0,0.744,0.285,1.397,0.824,1.89c0.436,0.398,1.125,0.809,2.108,1.255
	c0.929,0.424,2.212,0.916,3.812,1.461c3.077,1.087,5.305,2.329,6.611,3.686c1.259,1.309,1.871,2.962,1.871,5.056
	c0,2.384-0.724,4.256-2.211,5.723c-1.5,1.479-3.756,2.411-6.706,2.773l-0.747,0.091v4.378H56.969z"/>
<path d="M10.461,40.686c-0.105,0-0.185-0.08-0.185-0.186v-6.734c0-0.106,0.081-0.188,0.185-0.188h4.731
	c0.227,2.344,0.576,4.728,1.039,7.108H10.461z"/>
<path d="M0.185,51.912c-0.1,0-0.185-0.084-0.185-0.185v-6.738c0-0.101,0.084-0.186,0.185-0.186h16.959
	c0.548,2.185,1.189,4.338,1.91,6.41c0.08,0.23,0.162,0.464,0.247,0.698H0.185z"/>
<path d="M8.387,63.83c-0.102,0-0.184-0.084-0.184-0.188v-6.734c0-0.101,0.084-0.186,0.184-0.186h12.826
	c1.068,2.429,2.276,4.813,3.602,7.108H8.387z"/>
<path d="M5.797,75.572c-0.102,0-0.185-0.084-0.185-0.188v-6.734c0-0.104,0.081-0.185,0.185-0.185h21.95
	c1.707,2.483,3.585,4.867,5.602,7.107H5.797z"/>
<path d="M8.387,87.486c-0.1,0-0.184-0.084-0.184-0.185v-6.738c0-0.101,0.084-0.185,0.184-0.185h29.742
	c0.332,0.304,0.67,0.606,1.013,0.908v6.015c0,0.101-0.086,0.185-0.188,0.185H8.387z"/>
</svg>
